<svg width="1440" height="1024" viewBox="0 0 1440 1024" fill="none" xmlns="http://www.w3.org/2000/svg">
<g clip-path="url(#clip0_2_25)">
<rect width="1440" height="1024" fill="white"/>
<rect width="1440" height="158" fill="#003399"/>
<path d="M481.949 84V37.4545H487.585V58.1818H512.403V37.4545H518.04V84H512.403V63.1818H487.585V84H481.949ZM543.233 84.7273C539.869 84.7273 536.968 83.9848 534.528 82.5C532.104 81 530.233 78.9091 528.915 76.2273C527.612 73.5303 526.96 70.3939 526.96 66.8182C526.96 63.2424 527.612 60.0909 528.915 57.3636C530.233 54.6212 532.066 52.4848 534.415 50.9545C536.778 49.4091 539.536 48.6364 542.688 48.6364C544.506 48.6364 546.301 48.9394 548.074 49.5455C549.847 50.1515 551.46 51.1364 552.915 52.5C554.369 53.8485 555.528 55.6364 556.392 57.8636C557.256 60.0909 557.688 62.8333 557.688 66.0909V68.3636H530.778V63.7273H552.233C552.233 61.7576 551.839 60 551.051 58.4545C550.278 56.9091 549.172 55.6894 547.733 54.7955C546.309 53.9015 544.627 53.4545 542.688 53.4545C540.551 53.4545 538.703 53.9848 537.142 55.0455C535.597 56.0909 534.407 57.4545 533.574 59.1364C532.741 60.8182 532.324 62.6212 532.324 64.5455V67.6364C532.324 70.2727 532.778 72.5076 533.688 74.3409C534.612 76.1591 535.892 77.5455 537.528 78.5C539.165 79.4394 541.066 79.9091 543.233 79.9091C544.642 79.9091 545.915 79.7121 547.051 79.3182C548.203 78.9091 549.195 78.303 550.028 77.5C550.862 76.6818 551.506 75.6667 551.96 74.4545L557.142 75.9091C556.597 77.6667 555.68 79.2121 554.392 80.5455C553.104 81.8636 551.513 82.8939 549.619 83.6364C547.725 84.3636 545.597 84.7273 543.233 84.7273ZM571.21 63V84H565.847V49.0909H571.028V54.5455H571.483C572.301 52.7727 573.544 51.3485 575.21 50.2727C576.877 49.1818 579.028 48.6364 581.665 48.6364C584.028 48.6364 586.097 49.1212 587.869 50.0909C589.642 51.0455 591.021 52.5 592.006 54.4545C592.991 56.3939 593.483 58.8485 593.483 61.8182V84H588.119V62.1818C588.119 59.4394 587.407 57.303 585.983 55.7727C584.559 54.2273 582.604 53.4545 580.119 53.4545C578.407 53.4545 576.877 53.8258 575.528 54.5682C574.195 55.3106 573.142 56.3939 572.369 57.8182C571.597 59.2424 571.21 60.9697 571.21 63ZM603.284 84V49.0909H608.466V54.3636H608.83C609.466 52.6364 610.617 51.2348 612.284 50.1591C613.951 49.0833 615.83 48.5455 617.92 48.5455C618.314 48.5455 618.807 48.553 619.398 48.5682C619.989 48.5833 620.436 48.6061 620.739 48.6364V54.0909C620.557 54.0455 620.14 53.9773 619.489 53.8864C618.852 53.7803 618.178 53.7273 617.466 53.7273C615.769 53.7273 614.254 54.0833 612.92 54.7955C611.602 55.4924 610.557 56.4621 609.784 57.7045C609.027 58.9318 608.648 60.3333 608.648 61.9091V84H603.284ZM631.614 97.0909C630.705 97.0909 629.894 97.0152 629.182 96.8636C628.47 96.7273 627.977 96.5909 627.705 96.4545L629.068 91.7273C630.371 92.0606 631.523 92.1818 632.523 92.0909C633.523 92 634.409 91.553 635.182 90.75C635.97 89.9621 636.689 88.6818 637.341 86.9091L638.341 84.1818L625.432 49.0909H631.25L640.886 76.9091H641.25L650.886 49.0909H656.705L641.886 89.0909C641.22 90.8939 640.394 92.3864 639.409 93.5682C638.424 94.7652 637.28 95.6515 635.977 96.2273C634.689 96.803 633.235 97.0909 631.614 97.0909ZM670.761 37.4545V41.5455C670.761 42.7879 670.534 44.1136 670.08 45.5227C669.64 46.9167 668.989 48.2727 668.125 49.5909C667.277 50.8939 666.246 52.0303 665.034 53L662.125 50.6364C663.08 49.2727 663.905 47.8561 664.602 46.3864C665.314 44.9015 665.67 43.3182 665.67 41.6364V37.4545H670.761ZM697.636 56.9091L692.818 58.2727C692.515 57.4697 692.068 56.6894 691.477 55.9318C690.902 55.1591 690.114 54.5227 689.114 54.0227C688.114 53.5227 686.833 53.2727 685.273 53.2727C683.136 53.2727 681.356 53.7652 679.932 54.75C678.523 55.7197 677.818 56.9545 677.818 58.4545C677.818 59.7879 678.303 60.8409 679.273 61.6136C680.242 62.3864 681.758 63.0303 683.818 63.5455L689 64.8182C692.121 65.5758 694.447 66.7348 695.977 68.2955C697.508 69.8409 698.273 71.8333 698.273 74.2727C698.273 76.2727 697.697 78.0606 696.545 79.6364C695.409 81.2121 693.818 82.4545 691.773 83.3636C689.727 84.2727 687.348 84.7273 684.636 84.7273C681.076 84.7273 678.129 83.9545 675.795 82.4091C673.462 80.8636 671.985 78.6061 671.364 75.6364L676.455 74.3636C676.939 76.2424 677.856 77.6515 679.205 78.5909C680.568 79.5303 682.348 80 684.545 80C687.045 80 689.03 79.4697 690.5 78.4091C691.985 77.3333 692.727 76.0455 692.727 74.5455C692.727 73.3333 692.303 72.3182 691.455 71.5C690.606 70.6667 689.303 70.0455 687.545 69.6364L681.727 68.2727C678.53 67.5152 676.182 66.3409 674.682 64.75C673.197 63.1439 672.455 61.1364 672.455 58.7273C672.455 56.7576 673.008 55.0152 674.114 53.5C675.235 51.9848 676.758 50.7955 678.682 49.9318C680.621 49.0682 682.818 48.6364 685.273 48.6364C688.727 48.6364 691.439 49.3939 693.409 50.9091C695.394 52.4242 696.803 54.4242 697.636 56.9091ZM733.528 84L720.801 37.4545H726.528L736.256 75.3636H736.71L746.619 37.4545H752.983L762.892 75.3636H763.347L773.074 37.4545H778.801L766.074 84H760.256L749.983 46.9091H749.619L739.347 84H733.528ZM796.483 84.7273C793.119 84.7273 790.218 83.9848 787.778 82.5C785.354 81 783.483 78.9091 782.165 76.2273C780.862 73.5303 780.21 70.3939 780.21 66.8182C780.21 63.2424 780.862 60.0909 782.165 57.3636C783.483 54.6212 785.316 52.4848 787.665 50.9545C790.028 49.4091 792.786 48.6364 795.938 48.6364C797.756 48.6364 799.551 48.9394 801.324 49.5455C803.097 50.1515 804.71 51.1364 806.165 52.5C807.619 53.8485 808.778 55.6364 809.642 57.8636C810.506 60.0909 810.938 62.8333 810.938 66.0909V68.3636H784.028V63.7273H805.483C805.483 61.7576 805.089 60 804.301 58.4545C803.528 56.9091 802.422 55.6894 800.983 54.7955C799.559 53.9015 797.877 53.4545 795.938 53.4545C793.801 53.4545 791.953 53.9848 790.392 55.0455C788.847 56.0909 787.657 57.4545 786.824 59.1364C785.991 60.8182 785.574 62.6212 785.574 64.5455V67.6364C785.574 70.2727 786.028 72.5076 786.938 74.3409C787.862 76.1591 789.142 77.5455 790.778 78.5C792.415 79.4394 794.316 79.9091 796.483 79.9091C797.892 79.9091 799.165 79.7121 800.301 79.3182C801.453 78.9091 802.445 78.303 803.278 77.5C804.112 76.6818 804.756 75.6667 805.21 74.4545L810.392 75.9091C809.847 77.6667 808.93 79.2121 807.642 80.5455C806.354 81.8636 804.763 82.8939 802.869 83.6364C800.975 84.3636 798.847 84.7273 796.483 84.7273ZM819.824 84V37.4545H825.188V54.6364H825.642C826.036 54.0303 826.581 53.2576 827.278 52.3182C827.991 51.3636 829.006 50.5152 830.324 49.7727C831.657 49.0152 833.46 48.6364 835.733 48.6364C838.672 48.6364 841.263 49.3712 843.506 50.8409C845.748 52.3106 847.498 54.3939 848.756 57.0909C850.013 59.7879 850.642 62.9697 850.642 66.6364C850.642 70.3333 850.013 73.5379 848.756 76.25C847.498 78.947 845.756 81.0379 843.528 82.5227C841.301 83.9924 838.733 84.7273 835.824 84.7273C833.581 84.7273 831.786 84.3561 830.438 83.6136C829.089 82.8561 828.051 82 827.324 81.0455C826.597 80.0758 826.036 79.2727 825.642 78.6364H825.006V84H819.824ZM825.097 66.5455C825.097 69.1818 825.483 71.5076 826.256 73.5227C827.028 75.5227 828.157 77.0909 829.642 78.2273C831.127 79.3485 832.945 79.9091 835.097 79.9091C837.339 79.9091 839.21 79.3182 840.71 78.1364C842.225 76.9394 843.362 75.3333 844.119 73.3182C844.892 71.2879 845.278 69.0303 845.278 66.5455C845.278 64.0909 844.9 61.8788 844.142 59.9091C843.4 57.9242 842.271 56.3561 840.756 55.2045C839.256 54.0379 837.369 53.4545 835.097 53.4545C832.915 53.4545 831.081 54.0076 829.597 55.1136C828.112 56.2045 826.991 57.7348 826.233 59.7045C825.475 61.6591 825.097 63.9394 825.097 66.5455ZM883.574 56.9091L878.756 58.2727C878.453 57.4697 878.006 56.6894 877.415 55.9318C876.839 55.1591 876.051 54.5227 875.051 54.0227C874.051 53.5227 872.771 53.2727 871.21 53.2727C869.074 53.2727 867.294 53.7652 865.869 54.75C864.46 55.7197 863.756 56.9545 863.756 58.4545C863.756 59.7879 864.241 60.8409 865.21 61.6136C866.18 62.3864 867.695 63.0303 869.756 63.5455L874.938 64.8182C878.059 65.5758 880.384 66.7348 881.915 68.2955C883.445 69.8409 884.21 71.8333 884.21 74.2727C884.21 76.2727 883.634 78.0606 882.483 79.6364C881.347 81.2121 879.756 82.4545 877.71 83.3636C875.665 84.2727 873.286 84.7273 870.574 84.7273C867.013 84.7273 864.066 83.9545 861.733 82.4091C859.4 80.8636 857.922 78.6061 857.301 75.6364L862.392 74.3636C862.877 76.2424 863.794 77.6515 865.142 78.5909C866.506 79.5303 868.286 80 870.483 80C872.983 80 874.968 79.4697 876.438 78.4091C877.922 77.3333 878.665 76.0455 878.665 74.5455C878.665 73.3333 878.241 72.3182 877.392 71.5C876.544 70.6667 875.241 70.0455 873.483 69.6364L867.665 68.2727C864.468 67.5152 862.119 66.3409 860.619 64.75C859.134 63.1439 858.392 61.1364 858.392 58.7273C858.392 56.7576 858.945 55.0152 860.051 53.5C861.172 51.9848 862.695 50.7955 864.619 49.9318C866.559 49.0682 868.756 48.6364 871.21 48.6364C874.665 48.6364 877.377 49.3939 879.347 50.9091C881.331 52.4242 882.741 54.4242 883.574 56.9091ZM892.284 84V49.0909H897.648V84H892.284ZM895.011 43.2727C893.966 43.2727 893.064 42.9167 892.307 42.2045C891.564 41.4924 891.193 40.6364 891.193 39.6364C891.193 38.6364 891.564 37.7803 892.307 37.0682C893.064 36.3561 893.966 36 895.011 36C896.057 36 896.951 36.3561 897.693 37.0682C898.451 37.7803 898.83 38.6364 898.83 39.6364C898.83 40.6364 898.451 41.4924 897.693 42.2045C896.951 42.9167 896.057 43.2727 895.011 43.2727ZM922.653 49.0909V53.6364H904.562V49.0909H922.653ZM909.835 40.7273H915.199V74C915.199 75.5152 915.419 76.6515 915.858 77.4091C916.313 78.1515 916.888 78.6515 917.585 78.9091C918.297 79.1515 919.047 79.2727 919.835 79.2727C920.426 79.2727 920.911 79.2424 921.29 79.1818C921.669 79.1061 921.972 79.0455 922.199 79L923.29 83.8182C922.926 83.9545 922.419 84.0909 921.767 84.2273C921.116 84.3788 920.29 84.4545 919.29 84.4545C917.775 84.4545 916.29 84.1288 914.835 83.4773C913.396 82.8258 912.199 81.8333 911.244 80.5C910.305 79.1667 909.835 77.4848 909.835 75.4545V40.7273ZM944.983 84.7273C941.619 84.7273 938.718 83.9848 936.278 82.5C933.854 81 931.983 78.9091 930.665 76.2273C929.362 73.5303 928.71 70.3939 928.71 66.8182C928.71 63.2424 929.362 60.0909 930.665 57.3636C931.983 54.6212 933.816 52.4848 936.165 50.9545C938.528 49.4091 941.286 48.6364 944.438 48.6364C946.256 48.6364 948.051 48.9394 949.824 49.5455C951.597 50.1515 953.21 51.1364 954.665 52.5C956.119 53.8485 957.278 55.6364 958.142 57.8636C959.006 60.0909 959.438 62.8333 959.438 66.0909V68.3636H932.528V63.7273H953.983C953.983 61.7576 953.589 60 952.801 58.4545C952.028 56.9091 950.922 55.6894 949.483 54.7955C948.059 53.9015 946.377 53.4545 944.438 53.4545C942.301 53.4545 940.453 53.9848 938.892 55.0455C937.347 56.0909 936.157 57.4545 935.324 59.1364C934.491 60.8182 934.074 62.6212 934.074 64.5455V67.6364C934.074 70.2727 934.528 72.5076 935.438 74.3409C936.362 76.1591 937.642 77.5455 939.278 78.5C940.915 79.4394 942.816 79.9091 944.983 79.9091C946.392 79.9091 947.665 79.7121 948.801 79.3182C949.953 78.9091 950.945 78.303 951.778 77.5C952.612 76.6818 953.256 75.6667 953.71 74.4545L958.892 75.9091C958.347 77.6667 957.43 79.2121 956.142 80.5455C954.854 81.8636 953.263 82.8939 951.369 83.6364C949.475 84.3636 947.347 84.7273 944.983 84.7273Z" fill="white"/>
<path d="M276.313 144V109.091H280.54V124.636H299.154V109.091H303.381V144H299.154V128.386H280.54V144H276.313ZM321.935 144.545C319.572 144.545 317.498 143.983 315.714 142.858C313.941 141.733 312.555 140.159 311.555 138.136C310.566 136.114 310.072 133.75 310.072 131.045C310.072 128.318 310.566 125.937 311.555 123.903C312.555 121.869 313.941 120.29 315.714 119.165C317.498 118.04 319.572 117.477 321.935 117.477C324.299 117.477 326.367 118.04 328.14 119.165C329.924 120.29 331.31 121.869 332.299 123.903C333.299 125.937 333.799 128.318 333.799 131.045C333.799 133.75 333.299 136.114 332.299 138.136C331.31 140.159 329.924 141.733 328.14 142.858C326.367 143.983 324.299 144.545 321.935 144.545ZM321.935 140.932C323.731 140.932 325.208 140.472 326.367 139.551C327.526 138.631 328.384 137.42 328.941 135.92C329.498 134.42 329.776 132.795 329.776 131.045C329.776 129.295 329.498 127.665 328.941 126.153C328.384 124.642 327.526 123.42 326.367 122.489C325.208 121.557 323.731 121.091 321.935 121.091C320.14 121.091 318.663 121.557 317.504 122.489C316.344 123.42 315.487 124.642 314.93 126.153C314.373 127.665 314.094 129.295 314.094 131.045C314.094 132.795 314.373 134.42 314.93 135.92C315.487 137.42 316.344 138.631 317.504 139.551C318.663 140.472 320.14 140.932 321.935 140.932ZM339.94 144V117.818H343.826V121.909H344.167C344.712 120.511 345.593 119.426 346.809 118.653C348.025 117.869 349.485 117.477 351.19 117.477C352.917 117.477 354.354 117.869 355.502 118.653C356.661 119.426 357.565 120.511 358.212 121.909H358.485C359.156 120.557 360.161 119.483 361.502 118.688C362.843 117.881 364.451 117.477 366.326 117.477C368.667 117.477 370.582 118.21 372.07 119.676C373.559 121.131 374.303 123.398 374.303 126.477V144H370.281V126.477C370.281 124.545 369.752 123.165 368.695 122.335C367.638 121.506 366.394 121.091 364.962 121.091C363.121 121.091 361.695 121.648 360.684 122.761C359.673 123.864 359.167 125.261 359.167 126.955V144H355.076V126.068C355.076 124.58 354.593 123.381 353.627 122.472C352.661 121.551 351.417 121.091 349.894 121.091C348.849 121.091 347.871 121.369 346.962 121.926C346.065 122.483 345.337 123.256 344.781 124.244C344.235 125.222 343.962 126.352 343.962 127.636V144H339.94ZM392.636 144.545C390.113 144.545 387.937 143.989 386.107 142.875C384.289 141.75 382.886 140.182 381.897 138.17C380.92 136.148 380.431 133.795 380.431 131.114C380.431 128.432 380.92 126.068 381.897 124.023C382.886 121.966 384.261 120.364 386.022 119.216C387.795 118.057 389.863 117.477 392.227 117.477C393.59 117.477 394.937 117.705 396.266 118.159C397.596 118.614 398.806 119.352 399.897 120.375C400.988 121.386 401.857 122.727 402.505 124.398C403.153 126.068 403.477 128.125 403.477 130.568V132.273H383.295V128.795H399.386C399.386 127.318 399.09 126 398.499 124.841C397.92 123.682 397.09 122.767 396.011 122.097C394.942 121.426 393.681 121.091 392.227 121.091C390.624 121.091 389.238 121.489 388.067 122.284C386.908 123.068 386.016 124.091 385.391 125.352C384.766 126.614 384.454 127.966 384.454 129.409V131.727C384.454 133.705 384.795 135.381 385.477 136.756C386.17 138.119 387.13 139.159 388.357 139.875C389.585 140.58 391.011 140.932 392.636 140.932C393.692 140.932 394.647 140.784 395.499 140.489C396.363 140.182 397.107 139.727 397.732 139.125C398.357 138.511 398.84 137.75 399.181 136.841L403.067 137.932C402.658 139.25 401.971 140.409 401.005 141.409C400.039 142.398 398.846 143.17 397.425 143.727C396.005 144.273 394.408 144.545 392.636 144.545Z" fill="white"/>
<path d="M657.55 139H653.118L665.936 104.091H670.3L683.118 139H678.686L668.254 109.614H667.982L657.55 139ZM659.186 125.364H677.05V129.114H659.186V125.364ZM688.555 139V104.091H692.578V116.977H692.919C693.214 116.523 693.624 115.943 694.146 115.239C694.68 114.523 695.442 113.886 696.43 113.33C697.43 112.761 698.783 112.477 700.487 112.477C702.692 112.477 704.635 113.028 706.317 114.131C707.999 115.233 709.311 116.795 710.254 118.818C711.197 120.841 711.669 123.227 711.669 125.977C711.669 128.75 711.197 131.153 710.254 133.188C709.311 135.21 708.004 136.778 706.334 137.892C704.663 138.994 702.737 139.545 700.555 139.545C698.874 139.545 697.527 139.267 696.516 138.71C695.504 138.142 694.726 137.5 694.18 136.784C693.635 136.057 693.214 135.455 692.919 134.977H692.442V139H688.555ZM692.51 125.909C692.51 127.886 692.8 129.631 693.379 131.142C693.959 132.642 694.805 133.818 695.919 134.67C697.033 135.511 698.396 135.932 700.01 135.932C701.692 135.932 703.095 135.489 704.22 134.602C705.357 133.705 706.209 132.5 706.777 130.989C707.357 129.466 707.646 127.773 707.646 125.909C707.646 124.068 707.362 122.409 706.794 120.932C706.237 119.443 705.391 118.267 704.254 117.403C703.129 116.528 701.714 116.091 700.01 116.091C698.374 116.091 696.999 116.506 695.885 117.335C694.771 118.153 693.93 119.301 693.362 120.778C692.794 122.244 692.51 123.955 692.51 125.909ZM728.459 139.545C726.095 139.545 724.021 138.983 722.237 137.858C720.464 136.733 719.078 135.159 718.078 133.136C717.089 131.114 716.595 128.75 716.595 126.045C716.595 123.318 717.089 120.937 718.078 118.903C719.078 116.869 720.464 115.29 722.237 114.165C724.021 113.04 726.095 112.477 728.459 112.477C730.822 112.477 732.891 113.04 734.663 114.165C736.447 115.29 737.834 116.869 738.822 118.903C739.822 120.937 740.322 123.318 740.322 126.045C740.322 128.75 739.822 131.114 738.822 133.136C737.834 135.159 736.447 136.733 734.663 137.858C732.891 138.983 730.822 139.545 728.459 139.545ZM728.459 135.932C730.254 135.932 731.732 135.472 732.891 134.551C734.05 133.631 734.908 132.42 735.464 130.92C736.021 129.42 736.3 127.795 736.3 126.045C736.3 124.295 736.021 122.665 735.464 121.153C734.908 119.642 734.05 118.42 732.891 117.489C731.732 116.557 730.254 116.091 728.459 116.091C726.663 116.091 725.186 116.557 724.027 117.489C722.868 118.42 722.01 119.642 721.453 121.153C720.896 122.665 720.618 124.295 720.618 126.045C720.618 127.795 720.896 129.42 721.453 130.92C722.01 132.42 722.868 133.631 724.027 134.551C725.186 135.472 726.663 135.932 728.459 135.932ZM762.963 128.295V112.818H766.986V139H762.963V134.568H762.69C762.077 135.898 761.122 137.028 759.827 137.96C758.531 138.881 756.895 139.341 754.918 139.341C753.281 139.341 751.827 138.983 750.554 138.267C749.281 137.54 748.281 136.449 747.554 134.994C746.827 133.528 746.463 131.682 746.463 129.455V112.818H750.486V129.182C750.486 131.091 751.02 132.614 752.088 133.75C753.168 134.886 754.543 135.455 756.213 135.455C757.213 135.455 758.23 135.199 759.264 134.688C760.31 134.176 761.185 133.392 761.889 132.335C762.605 131.278 762.963 129.932 762.963 128.295ZM785.74 112.818V116.227H772.172V112.818H785.74ZM776.126 106.545H780.149V131.5C780.149 132.636 780.314 133.489 780.643 134.057C780.984 134.614 781.416 134.989 781.939 135.182C782.473 135.364 783.036 135.455 783.626 135.455C784.07 135.455 784.433 135.432 784.717 135.386C785.001 135.33 785.229 135.284 785.399 135.25L786.217 138.864C785.945 138.966 785.564 139.068 785.075 139.17C784.587 139.284 783.967 139.341 783.217 139.341C782.081 139.341 780.967 139.097 779.876 138.608C778.797 138.119 777.899 137.375 777.183 136.375C776.479 135.375 776.126 134.114 776.126 132.591V106.545Z" fill="white"/>
<path d="M1067.63 110H1063.4C1063.15 108.784 1062.72 107.716 1062.09 106.795C1061.48 105.875 1060.73 105.102 1059.84 104.477C1058.97 103.841 1057.99 103.364 1056.93 103.045C1055.86 102.727 1054.74 102.568 1053.59 102.568C1051.47 102.568 1049.56 103.102 1047.84 104.17C1046.14 105.239 1044.78 106.812 1043.77 108.892C1042.77 110.972 1042.27 113.523 1042.27 116.545C1042.27 119.568 1042.77 122.119 1043.77 124.199C1044.78 126.278 1046.14 127.852 1047.84 128.92C1049.56 129.989 1051.47 130.523 1053.59 130.523C1054.74 130.523 1055.86 130.364 1056.93 130.045C1057.99 129.727 1058.97 129.256 1059.84 128.631C1060.73 127.994 1061.48 127.216 1062.09 126.295C1062.72 125.364 1063.15 124.295 1063.4 123.091H1067.63C1067.31 124.875 1066.73 126.472 1065.89 127.881C1065.05 129.29 1064.01 130.489 1062.76 131.477C1061.51 132.455 1060.1 133.199 1058.55 133.71C1057 134.222 1055.35 134.477 1053.59 134.477C1050.61 134.477 1047.96 133.75 1045.64 132.295C1043.32 130.841 1041.5 128.773 1040.17 126.091C1038.84 123.409 1038.18 120.227 1038.18 116.545C1038.18 112.864 1038.84 109.682 1040.17 107C1041.5 104.318 1043.32 102.25 1045.64 100.795C1047.96 99.3409 1050.61 98.6136 1053.59 98.6136C1055.35 98.6136 1057 98.8693 1058.55 99.3807C1060.1 99.892 1061.51 100.642 1062.76 101.631C1064.01 102.608 1065.05 103.801 1065.89 105.21C1066.73 106.608 1067.31 108.205 1067.63 110ZM1084.55 134.545C1082.19 134.545 1080.12 133.983 1078.33 132.858C1076.56 131.733 1075.17 130.159 1074.17 128.136C1073.18 126.114 1072.69 123.75 1072.69 121.045C1072.69 118.318 1073.18 115.937 1074.17 113.903C1075.17 111.869 1076.56 110.29 1078.33 109.165C1080.12 108.04 1082.19 107.477 1084.55 107.477C1086.92 107.477 1088.98 108.04 1090.76 109.165C1092.54 110.29 1093.93 111.869 1094.92 113.903C1095.92 115.937 1096.42 118.318 1096.42 121.045C1096.42 123.75 1095.92 126.114 1094.92 128.136C1093.93 130.159 1092.54 131.733 1090.76 132.858C1088.98 133.983 1086.92 134.545 1084.55 134.545ZM1084.55 130.932C1086.35 130.932 1087.83 130.472 1088.98 129.551C1090.14 128.631 1091 127.42 1091.56 125.92C1092.12 124.42 1092.39 122.795 1092.39 121.045C1092.39 119.295 1092.12 117.665 1091.56 116.153C1091 114.642 1090.14 113.42 1088.98 112.489C1087.83 111.557 1086.35 111.091 1084.55 111.091C1082.76 111.091 1081.28 111.557 1080.12 112.489C1078.96 113.42 1078.1 114.642 1077.55 116.153C1076.99 117.665 1076.71 119.295 1076.71 121.045C1076.71 122.795 1076.99 124.42 1077.55 125.92C1078.1 127.42 1078.96 128.631 1080.12 129.551C1081.28 130.472 1082.76 130.932 1084.55 130.932ZM1106.58 118.25V134H1102.56V107.818H1106.44V111.909H1106.78C1107.4 110.58 1108.33 109.511 1109.58 108.705C1110.83 107.886 1112.44 107.477 1114.42 107.477C1116.19 107.477 1117.74 107.841 1119.07 108.568C1120.4 109.284 1121.44 110.375 1122.18 111.841C1122.91 113.295 1123.28 115.136 1123.28 117.364V134H1119.26V117.636C1119.26 115.58 1118.73 113.977 1117.66 112.83C1116.59 111.67 1115.13 111.091 1113.26 111.091C1111.98 111.091 1110.83 111.369 1109.82 111.926C1108.82 112.483 1108.03 113.295 1107.45 114.364C1106.87 115.432 1106.58 116.727 1106.58 118.25ZM1142.02 107.818V111.227H1128.45V107.818H1142.02ZM1132.41 101.545H1136.43V126.5C1136.43 127.636 1136.6 128.489 1136.92 129.057C1137.27 129.614 1137.7 129.989 1138.22 130.182C1138.75 130.364 1139.32 130.455 1139.91 130.455C1140.35 130.455 1140.71 130.432 1141 130.386C1141.28 130.33 1141.51 130.284 1141.68 130.25L1142.5 133.864C1142.23 133.966 1141.85 134.068 1141.36 134.17C1140.87 134.284 1140.25 134.341 1139.5 134.341C1138.36 134.341 1137.25 134.097 1136.16 133.608C1135.08 133.119 1134.18 132.375 1133.46 131.375C1132.76 130.375 1132.41 129.114 1132.41 127.591V101.545ZM1155.78 134.614C1154.12 134.614 1152.61 134.301 1151.26 133.676C1149.91 133.04 1148.83 132.125 1148.04 130.932C1147.24 129.727 1146.85 128.273 1146.85 126.568C1146.85 125.068 1147.14 123.852 1147.73 122.92C1148.32 121.977 1149.11 121.239 1150.1 120.705C1151.09 120.17 1152.18 119.773 1153.37 119.511C1154.58 119.239 1155.79 119.023 1157 118.864C1158.6 118.659 1159.88 118.506 1160.87 118.403C1161.87 118.29 1162.6 118.102 1163.06 117.841C1163.52 117.58 1163.75 117.125 1163.75 116.477V116.341C1163.75 114.659 1163.29 113.352 1162.37 112.42C1161.46 111.489 1160.08 111.023 1158.23 111.023C1156.31 111.023 1154.81 111.443 1153.71 112.284C1152.62 113.125 1151.86 114.023 1151.41 114.977L1147.6 113.614C1148.28 112.023 1149.19 110.784 1150.32 109.898C1151.47 109 1152.72 108.375 1154.07 108.023C1155.44 107.659 1156.78 107.477 1158.1 107.477C1158.94 107.477 1159.9 107.58 1160.99 107.784C1162.1 107.977 1163.16 108.381 1164.18 108.994C1165.21 109.608 1166.07 110.534 1166.75 111.773C1167.44 113.011 1167.78 114.67 1167.78 116.75V134H1163.75V130.455H1163.55C1163.28 131.023 1162.82 131.631 1162.19 132.278C1161.55 132.926 1160.7 133.477 1159.65 133.932C1158.59 134.386 1157.3 134.614 1155.78 134.614ZM1156.39 131C1157.98 131 1159.32 130.688 1160.41 130.062C1161.52 129.438 1162.35 128.631 1162.9 127.642C1163.47 126.653 1163.75 125.614 1163.75 124.523V120.841C1163.58 121.045 1163.21 121.233 1162.63 121.403C1162.06 121.562 1161.4 121.705 1160.65 121.83C1159.91 121.943 1159.19 122.045 1158.49 122.136C1157.79 122.216 1157.23 122.284 1156.8 122.341C1155.75 122.477 1154.78 122.699 1153.87 123.006C1152.97 123.301 1152.24 123.75 1151.69 124.352C1151.14 124.943 1150.87 125.75 1150.87 126.773C1150.87 128.17 1151.38 129.227 1152.42 129.943C1153.46 130.648 1154.79 131 1156.39 131ZM1185.76 134.545C1183.3 134.545 1181.19 133.966 1179.41 132.807C1177.64 131.648 1176.28 130.051 1175.32 128.017C1174.37 125.983 1173.89 123.659 1173.89 121.045C1173.89 118.386 1174.38 116.04 1175.36 114.006C1176.35 111.96 1177.72 110.364 1179.48 109.216C1181.26 108.057 1183.32 107.477 1185.69 107.477C1187.53 107.477 1189.19 107.818 1190.66 108.5C1192.14 109.182 1193.35 110.136 1194.3 111.364C1195.24 112.591 1195.82 114.023 1196.05 115.659H1192.03C1191.72 114.466 1191.04 113.409 1189.98 112.489C1188.94 111.557 1187.53 111.091 1185.76 111.091C1184.19 111.091 1182.81 111.5 1181.63 112.318C1180.46 113.125 1179.55 114.267 1178.89 115.744C1178.24 117.21 1177.91 118.932 1177.91 120.909C1177.91 122.932 1178.23 124.693 1178.87 126.193C1179.52 127.693 1180.43 128.858 1181.6 129.688C1182.78 130.517 1184.16 130.932 1185.76 130.932C1186.8 130.932 1187.75 130.75 1188.6 130.386C1189.45 130.023 1190.18 129.5 1190.77 128.818C1191.36 128.136 1191.78 127.318 1192.03 126.364H1196.05C1195.82 127.909 1195.26 129.301 1194.36 130.54C1193.48 131.767 1192.3 132.744 1190.84 133.472C1189.38 134.188 1187.69 134.545 1185.76 134.545ZM1213.32 107.818V111.227H1199.75V107.818H1213.32ZM1203.7 101.545H1207.73V126.5C1207.73 127.636 1207.89 128.489 1208.22 129.057C1208.56 129.614 1208.99 129.989 1209.52 130.182C1210.05 130.364 1210.61 130.455 1211.2 130.455C1211.65 130.455 1212.01 130.432 1212.3 130.386C1212.58 130.33 1212.81 130.284 1212.98 130.25L1213.8 133.864C1213.52 133.966 1213.14 134.068 1212.65 134.17C1212.16 134.284 1211.55 134.341 1210.8 134.341C1209.66 134.341 1208.55 134.097 1207.45 133.608C1206.38 133.119 1205.48 132.375 1204.76 131.375C1204.06 130.375 1203.7 129.114 1203.7 127.591V101.545Z" fill="white"/>
<rect x="720.5" y="408.5" width="247" height="113" rx="5.5" fill="#E9ECEF"/>
<rect x="720.5" y="408.5" width="247" height="113" rx="5.5" stroke="#DEE2E6"/>
<path d="M739.523 440L736.341 428.364H737.773L740.205 437.841H740.318L742.795 428.364H744.386L746.864 437.841H746.977L749.409 428.364H750.841L747.659 440H746.205L743.636 430.727H743.545L740.977 440H739.523ZM751.868 440V431.273H753.163V432.591H753.254C753.413 432.159 753.701 431.809 754.118 431.54C754.535 431.271 755.004 431.136 755.527 431.136C755.625 431.136 755.749 431.138 755.896 431.142C756.044 431.146 756.156 431.152 756.232 431.159V432.523C756.186 432.511 756.082 432.494 755.919 432.472C755.76 432.445 755.591 432.432 755.413 432.432C754.989 432.432 754.61 432.521 754.277 432.699C753.947 432.873 753.686 433.116 753.493 433.426C753.304 433.733 753.209 434.083 753.209 434.477V440H751.868ZM757.821 440V431.273H759.162V440H757.821ZM758.503 429.818C758.241 429.818 758.016 429.729 757.827 429.551C757.641 429.373 757.548 429.159 757.548 428.909C757.548 428.659 757.641 428.445 757.827 428.267C758.016 428.089 758.241 428 758.503 428C758.764 428 758.988 428.089 759.173 428.267C759.363 428.445 759.457 428.659 759.457 428.909C759.457 429.159 759.363 429.373 759.173 429.551C758.988 429.729 758.764 429.818 758.503 429.818ZM765.413 431.273V432.409H760.891V431.273H765.413ZM762.209 429.182H763.55V437.5C763.55 437.879 763.605 438.163 763.714 438.352C763.828 438.538 763.972 438.663 764.146 438.727C764.324 438.788 764.512 438.818 764.709 438.818C764.857 438.818 764.978 438.811 765.072 438.795C765.167 438.777 765.243 438.761 765.3 438.75L765.572 439.955C765.482 439.989 765.355 440.023 765.192 440.057C765.029 440.095 764.822 440.114 764.572 440.114C764.194 440.114 763.822 440.032 763.459 439.869C763.099 439.706 762.8 439.458 762.561 439.125C762.326 438.792 762.209 438.371 762.209 437.864V429.182ZM770.996 440.182C770.155 440.182 769.429 439.996 768.82 439.625C768.214 439.25 767.746 438.727 767.416 438.057C767.09 437.383 766.928 436.598 766.928 435.705C766.928 434.811 767.09 434.023 767.416 433.341C767.746 432.655 768.204 432.121 768.791 431.739C769.382 431.352 770.071 431.159 770.859 431.159C771.314 431.159 771.763 431.235 772.206 431.386C772.649 431.538 773.053 431.784 773.416 432.125C773.78 432.462 774.07 432.909 774.286 433.466C774.501 434.023 774.609 434.708 774.609 435.523V436.091H767.882V434.932H773.246C773.246 434.439 773.147 434 772.95 433.614C772.757 433.227 772.481 432.922 772.121 432.699C771.765 432.475 771.344 432.364 770.859 432.364C770.325 432.364 769.863 432.496 769.473 432.761C769.087 433.023 768.789 433.364 768.581 433.784C768.373 434.205 768.268 434.655 768.268 435.136V435.909C768.268 436.568 768.382 437.127 768.609 437.585C768.84 438.04 769.161 438.386 769.57 438.625C769.979 438.86 770.454 438.977 770.996 438.977C771.348 438.977 771.666 438.928 771.95 438.83C772.238 438.727 772.486 438.576 772.695 438.375C772.903 438.17 773.064 437.917 773.178 437.614L774.473 437.977C774.337 438.417 774.107 438.803 773.786 439.136C773.464 439.466 773.066 439.723 772.592 439.909C772.119 440.091 771.587 440.182 770.996 440.182ZM783.717 440.205C783.164 440.205 782.662 440.1 782.212 439.892C781.761 439.68 781.403 439.375 781.138 438.977C780.873 438.576 780.74 438.091 780.74 437.523C780.74 437.023 780.839 436.617 781.036 436.307C781.232 435.992 781.496 435.746 781.825 435.568C782.155 435.39 782.518 435.258 782.916 435.17C783.318 435.08 783.721 435.008 784.126 434.955C784.657 434.886 785.087 434.835 785.416 434.801C785.75 434.763 785.992 434.701 786.143 434.614C786.299 434.527 786.376 434.375 786.376 434.159V434.114C786.376 433.553 786.223 433.117 785.916 432.807C785.613 432.496 785.153 432.341 784.536 432.341C783.895 432.341 783.393 432.481 783.03 432.761C782.666 433.042 782.411 433.341 782.263 433.659L780.99 433.205C781.217 432.674 781.52 432.261 781.899 431.966C782.282 431.667 782.698 431.458 783.149 431.341C783.604 431.22 784.051 431.159 784.49 431.159C784.77 431.159 785.092 431.193 785.456 431.261C785.823 431.326 786.178 431.46 786.518 431.665C786.863 431.869 787.149 432.178 787.376 432.591C787.604 433.004 787.717 433.557 787.717 434.25V440H786.376V438.818H786.308C786.217 439.008 786.066 439.21 785.854 439.426C785.642 439.642 785.359 439.826 785.007 439.977C784.655 440.129 784.225 440.205 783.717 440.205ZM783.922 439C784.452 439 784.899 438.896 785.263 438.688C785.63 438.479 785.907 438.21 786.092 437.881C786.282 437.551 786.376 437.205 786.376 436.841V435.614C786.32 435.682 786.195 435.744 786.001 435.801C785.812 435.854 785.592 435.902 785.342 435.943C785.096 435.981 784.856 436.015 784.621 436.045C784.39 436.072 784.202 436.095 784.058 436.114C783.71 436.159 783.384 436.233 783.081 436.335C782.782 436.434 782.539 436.583 782.354 436.784C782.172 436.981 782.081 437.25 782.081 437.591C782.081 438.057 782.253 438.409 782.598 438.648C782.946 438.883 783.388 439 783.922 439ZM794.665 440V431.273H795.96V432.636H796.074C796.256 432.17 796.549 431.809 796.955 431.551C797.36 431.29 797.847 431.159 798.415 431.159C798.991 431.159 799.47 431.29 799.852 431.551C800.239 431.809 800.54 432.17 800.756 432.636H800.847C801.07 432.186 801.405 431.828 801.852 431.562C802.299 431.294 802.835 431.159 803.46 431.159C804.241 431.159 804.879 431.403 805.375 431.892C805.871 432.377 806.119 433.133 806.119 434.159V440H804.778V434.159C804.778 433.515 804.602 433.055 804.25 432.778C803.898 432.502 803.483 432.364 803.006 432.364C802.392 432.364 801.917 432.549 801.58 432.92C801.242 433.288 801.074 433.754 801.074 434.318V440H799.71V434.023C799.71 433.527 799.549 433.127 799.227 432.824C798.905 432.517 798.491 432.364 797.983 432.364C797.634 432.364 797.309 432.456 797.006 432.642C796.706 432.828 796.464 433.085 796.278 433.415C796.097 433.741 796.006 434.117 796.006 434.545V440H794.665ZM812.23 440.182C811.389 440.182 810.664 439.996 810.054 439.625C809.448 439.25 808.98 438.727 808.651 438.057C808.325 437.383 808.162 436.598 808.162 435.705C808.162 434.811 808.325 434.023 808.651 433.341C808.98 432.655 809.438 432.121 810.026 431.739C810.616 431.352 811.306 431.159 812.094 431.159C812.548 431.159 812.997 431.235 813.44 431.386C813.884 431.538 814.287 431.784 814.651 432.125C815.014 432.462 815.304 432.909 815.52 433.466C815.736 434.023 815.844 434.708 815.844 435.523V436.091H809.116V434.932H814.48C814.48 434.439 814.382 434 814.185 433.614C813.991 433.227 813.715 432.922 813.355 432.699C812.999 432.475 812.579 432.364 812.094 432.364C811.56 432.364 811.098 432.496 810.707 432.761C810.321 433.023 810.024 433.364 809.815 433.784C809.607 434.205 809.503 434.655 809.503 435.136V435.909C809.503 436.568 809.616 437.127 809.844 437.585C810.075 438.04 810.395 438.386 810.804 438.625C811.213 438.86 811.688 438.977 812.23 438.977C812.582 438.977 812.901 438.928 813.185 438.83C813.473 438.727 813.721 438.576 813.929 438.375C814.137 438.17 814.298 437.917 814.412 437.614L815.707 437.977C815.571 438.417 815.342 438.803 815.02 439.136C814.698 439.466 814.3 439.723 813.827 439.909C813.353 440.091 812.821 440.182 812.23 440.182ZM824.065 433.227L822.861 433.568C822.785 433.367 822.673 433.172 822.526 432.983C822.382 432.79 822.185 432.631 821.935 432.506C821.685 432.381 821.365 432.318 820.974 432.318C820.44 432.318 819.995 432.441 819.639 432.688C819.287 432.93 819.111 433.239 819.111 433.614C819.111 433.947 819.232 434.21 819.474 434.403C819.717 434.597 820.096 434.758 820.611 434.886L821.906 435.205C822.687 435.394 823.268 435.684 823.651 436.074C824.033 436.46 824.224 436.958 824.224 437.568C824.224 438.068 824.08 438.515 823.793 438.909C823.509 439.303 823.111 439.614 822.599 439.841C822.088 440.068 821.493 440.182 820.815 440.182C819.925 440.182 819.188 439.989 818.605 439.602C818.022 439.216 817.652 438.652 817.497 437.909L818.77 437.591C818.891 438.061 819.12 438.413 819.457 438.648C819.798 438.883 820.243 439 820.793 439C821.418 439 821.914 438.867 822.281 438.602C822.652 438.333 822.838 438.011 822.838 437.636C822.838 437.333 822.732 437.08 822.52 436.875C822.308 436.667 821.982 436.511 821.543 436.409L820.088 436.068C819.289 435.879 818.702 435.585 818.327 435.188C817.955 434.786 817.77 434.284 817.77 433.682C817.77 433.189 817.908 432.754 818.185 432.375C818.465 431.996 818.846 431.699 819.327 431.483C819.812 431.267 820.361 431.159 820.974 431.159C821.838 431.159 822.516 431.348 823.009 431.727C823.505 432.106 823.857 432.606 824.065 433.227ZM832.425 433.227L831.22 433.568C831.144 433.367 831.033 433.172 830.885 432.983C830.741 432.79 830.544 432.631 830.294 432.506C830.044 432.381 829.724 432.318 829.334 432.318C828.8 432.318 828.355 432.441 827.999 432.688C827.646 432.93 827.47 433.239 827.47 433.614C827.47 433.947 827.591 434.21 827.834 434.403C828.076 434.597 828.455 434.758 828.97 434.886L830.266 435.205C831.046 435.394 831.627 435.684 832.01 436.074C832.393 436.46 832.584 436.958 832.584 437.568C832.584 438.068 832.44 438.515 832.152 438.909C831.868 439.303 831.47 439.614 830.959 439.841C830.447 440.068 829.853 440.182 829.175 440.182C828.285 440.182 827.548 439.989 826.964 439.602C826.381 439.216 826.012 438.652 825.857 437.909L827.129 437.591C827.25 438.061 827.48 438.413 827.817 438.648C828.158 438.883 828.603 439 829.152 439C829.777 439 830.273 438.867 830.641 438.602C831.012 438.333 831.197 438.011 831.197 437.636C831.197 437.333 831.091 437.08 830.879 436.875C830.667 436.667 830.341 436.511 829.902 436.409L828.447 436.068C827.648 435.879 827.061 435.585 826.686 435.188C826.315 434.786 826.129 434.284 826.129 433.682C826.129 433.189 826.268 432.754 826.544 432.375C826.824 431.996 827.205 431.699 827.686 431.483C828.171 431.267 828.72 431.159 829.334 431.159C830.197 431.159 830.875 431.348 831.368 431.727C831.864 432.106 832.216 432.606 832.425 433.227ZM837.17 440.205C836.617 440.205 836.116 440.1 835.665 439.892C835.214 439.68 834.856 439.375 834.591 438.977C834.326 438.576 834.193 438.091 834.193 437.523C834.193 437.023 834.292 436.617 834.489 436.307C834.686 435.992 834.949 435.746 835.278 435.568C835.608 435.39 835.972 435.258 836.369 435.17C836.771 435.08 837.174 435.008 837.58 434.955C838.11 434.886 838.54 434.835 838.869 434.801C839.203 434.763 839.445 434.701 839.597 434.614C839.752 434.527 839.83 434.375 839.83 434.159V434.114C839.83 433.553 839.676 433.117 839.369 432.807C839.066 432.496 838.606 432.341 837.989 432.341C837.348 432.341 836.847 432.481 836.483 432.761C836.119 433.042 835.864 433.341 835.716 433.659L834.443 433.205C834.67 432.674 834.973 432.261 835.352 431.966C835.735 431.667 836.152 431.458 836.602 431.341C837.057 431.22 837.504 431.159 837.943 431.159C838.223 431.159 838.545 431.193 838.909 431.261C839.277 431.326 839.631 431.46 839.972 431.665C840.316 431.869 840.602 432.178 840.83 432.591C841.057 433.004 841.17 433.557 841.17 434.25V440H839.83V438.818H839.761C839.67 439.008 839.519 439.21 839.307 439.426C839.095 439.642 838.813 439.826 838.46 439.977C838.108 440.129 837.678 440.205 837.17 440.205ZM837.375 439C837.905 439 838.352 438.896 838.716 438.688C839.083 438.479 839.36 438.21 839.545 437.881C839.735 437.551 839.83 437.205 839.83 436.841V435.614C839.773 435.682 839.648 435.744 839.455 435.801C839.265 435.854 839.045 435.902 838.795 435.943C838.549 435.981 838.309 436.015 838.074 436.045C837.843 436.072 837.655 436.095 837.511 436.114C837.163 436.159 836.837 436.233 836.534 436.335C836.235 436.434 835.992 436.583 835.807 436.784C835.625 436.981 835.534 437.25 835.534 437.591C835.534 438.057 835.706 438.409 836.051 438.648C836.4 438.883 836.841 439 837.375 439ZM847.141 443.455C846.493 443.455 845.936 443.371 845.47 443.205C845.004 443.042 844.616 442.826 844.305 442.557C843.999 442.292 843.754 442.008 843.572 441.705L844.641 440.955C844.762 441.114 844.915 441.295 845.101 441.5C845.286 441.708 845.54 441.888 845.862 442.04C846.188 442.195 846.614 442.273 847.141 442.273C847.845 442.273 848.427 442.102 848.885 441.761C849.343 441.42 849.572 440.886 849.572 440.159V438.386H849.459C849.36 438.545 849.22 438.742 849.038 438.977C848.86 439.208 848.603 439.415 848.266 439.597C847.932 439.775 847.482 439.864 846.913 439.864C846.209 439.864 845.576 439.697 845.016 439.364C844.459 439.03 844.018 438.545 843.692 437.909C843.37 437.273 843.209 436.5 843.209 435.591C843.209 434.697 843.366 433.919 843.68 433.256C843.995 432.589 844.432 432.074 844.993 431.71C845.554 431.343 846.201 431.159 846.936 431.159C847.504 431.159 847.955 431.254 848.288 431.443C848.625 431.629 848.883 431.841 849.061 432.08C849.243 432.314 849.383 432.508 849.482 432.659H849.618V431.273H850.913V440.25C850.913 441 850.743 441.61 850.402 442.08C850.065 442.553 849.61 442.9 849.038 443.119C848.47 443.343 847.838 443.455 847.141 443.455ZM847.095 438.659C847.633 438.659 848.088 438.536 848.459 438.29C848.83 438.044 849.112 437.689 849.305 437.227C849.499 436.765 849.595 436.212 849.595 435.568C849.595 434.939 849.5 434.384 849.311 433.903C849.122 433.422 848.841 433.045 848.47 432.773C848.099 432.5 847.641 432.364 847.095 432.364C846.527 432.364 846.054 432.508 845.675 432.795C845.3 433.083 845.018 433.47 844.828 433.955C844.643 434.439 844.55 434.977 844.55 435.568C844.55 436.174 844.644 436.71 844.834 437.176C845.027 437.638 845.311 438.002 845.686 438.267C846.065 438.528 846.535 438.659 847.095 438.659ZM857.027 440.182C856.186 440.182 855.461 439.996 854.851 439.625C854.245 439.25 853.777 438.727 853.447 438.057C853.122 437.383 852.959 436.598 852.959 435.705C852.959 434.811 853.122 434.023 853.447 433.341C853.777 432.655 854.235 432.121 854.822 431.739C855.413 431.352 856.103 431.159 856.891 431.159C857.345 431.159 857.794 431.235 858.237 431.386C858.68 431.538 859.084 431.784 859.447 432.125C859.811 432.462 860.101 432.909 860.317 433.466C860.533 434.023 860.641 434.708 860.641 435.523V436.091H853.913V434.932H859.277C859.277 434.439 859.179 434 858.982 433.614C858.788 433.227 858.512 432.922 858.152 432.699C857.796 432.475 857.375 432.364 856.891 432.364C856.357 432.364 855.894 432.496 855.504 432.761C855.118 433.023 854.821 433.364 854.612 433.784C854.404 434.205 854.3 434.655 854.3 435.136V435.909C854.3 436.568 854.413 437.127 854.641 437.585C854.872 438.04 855.192 438.386 855.601 438.625C856.01 438.86 856.485 438.977 857.027 438.977C857.379 438.977 857.697 438.928 857.982 438.83C858.269 438.727 858.518 438.576 858.726 438.375C858.934 438.17 859.095 437.917 859.209 437.614L860.504 437.977C860.368 438.417 860.139 438.803 859.817 439.136C859.495 439.466 859.097 439.723 858.624 439.909C858.15 440.091 857.618 440.182 857.027 440.182Z" fill="#ADB5BD"/>
<rect x="724.5" y="336.5" width="239" height="47" rx="5.5" fill="#E9ECEF"/>
<rect x="724.5" y="336.5" width="239" height="47" rx="5.5" stroke="#DEE2E6"/>
<path d="M741.409 366V354.364H748.432V355.614H742.818V359.545H748.068V360.795H742.818V364.75H748.523V366H741.409ZM752.131 360.75V366H750.79V357.273H752.085V358.636H752.199C752.403 358.193 752.714 357.837 753.131 357.568C753.547 357.295 754.085 357.159 754.744 357.159C755.335 357.159 755.852 357.28 756.295 357.523C756.739 357.761 757.083 358.125 757.33 358.614C757.576 359.098 757.699 359.712 757.699 360.455V366H756.358V360.545C756.358 359.86 756.18 359.326 755.824 358.943C755.468 358.557 754.979 358.364 754.358 358.364C753.93 358.364 753.547 358.456 753.21 358.642C752.877 358.828 752.614 359.098 752.42 359.455C752.227 359.811 752.131 360.242 752.131 360.75ZM763.945 357.273V358.409H759.422V357.273H763.945ZM760.74 355.182H762.081V363.5C762.081 363.879 762.136 364.163 762.246 364.352C762.359 364.538 762.503 364.663 762.678 364.727C762.856 364.788 763.043 364.818 763.24 364.818C763.388 364.818 763.509 364.811 763.604 364.795C763.698 364.777 763.774 364.761 763.831 364.75L764.104 365.955C764.013 365.989 763.886 366.023 763.723 366.057C763.56 366.095 763.354 366.114 763.104 366.114C762.725 366.114 762.354 366.032 761.99 365.869C761.63 365.706 761.331 365.458 761.092 365.125C760.857 364.792 760.74 364.371 760.74 363.864V355.182ZM769.527 366.182C768.686 366.182 767.961 365.996 767.351 365.625C766.745 365.25 766.277 364.727 765.947 364.057C765.622 363.383 765.459 362.598 765.459 361.705C765.459 360.811 765.622 360.023 765.947 359.341C766.277 358.655 766.735 358.121 767.322 357.739C767.913 357.352 768.603 357.159 769.391 357.159C769.845 357.159 770.294 357.235 770.737 357.386C771.18 357.538 771.584 357.784 771.947 358.125C772.311 358.462 772.601 358.909 772.817 359.466C773.033 360.023 773.141 360.708 773.141 361.523V362.091H766.413V360.932H771.777C771.777 360.439 771.679 360 771.482 359.614C771.288 359.227 771.012 358.922 770.652 358.699C770.296 358.475 769.875 358.364 769.391 358.364C768.857 358.364 768.394 358.496 768.004 358.761C767.618 359.023 767.321 359.364 767.112 359.784C766.904 360.205 766.8 360.655 766.8 361.136V361.909C766.8 362.568 766.913 363.127 767.141 363.585C767.372 364.04 767.692 364.386 768.101 364.625C768.51 364.86 768.985 364.977 769.527 364.977C769.879 364.977 770.197 364.928 770.482 364.83C770.769 364.727 771.018 364.576 771.226 364.375C771.434 364.17 771.595 363.917 771.709 363.614L773.004 363.977C772.868 364.417 772.639 364.803 772.317 365.136C771.995 365.466 771.597 365.723 771.124 365.909C770.65 366.091 770.118 366.182 769.527 366.182ZM775.18 366V357.273H776.476V358.591H776.567C776.726 358.159 777.014 357.809 777.43 357.54C777.847 357.271 778.317 357.136 778.839 357.136C778.938 357.136 779.061 357.138 779.209 357.142C779.357 357.146 779.468 357.152 779.544 357.159V358.523C779.499 358.511 779.394 358.494 779.232 358.472C779.072 358.445 778.904 358.432 778.726 358.432C778.302 358.432 777.923 358.521 777.589 358.699C777.26 358.873 776.999 359.116 776.805 359.426C776.616 359.733 776.521 360.083 776.521 360.477V366H775.18ZM786.974 360.75V366H785.634V357.273H786.929V358.636H787.043C787.247 358.193 787.558 357.837 787.974 357.568C788.391 357.295 788.929 357.159 789.588 357.159C790.179 357.159 790.696 357.28 791.139 357.523C791.582 357.761 791.927 358.125 792.173 358.614C792.42 359.098 792.543 359.712 792.543 360.455V366H791.202V360.545C791.202 359.86 791.024 359.326 790.668 358.943C790.312 358.557 789.823 358.364 789.202 358.364C788.774 358.364 788.391 358.456 788.054 358.642C787.721 358.828 787.457 359.098 787.264 359.455C787.071 359.811 786.974 360.242 786.974 360.75ZM797.561 366.205C797.008 366.205 796.506 366.1 796.055 365.892C795.605 365.68 795.247 365.375 794.982 364.977C794.716 364.576 794.584 364.091 794.584 363.523C794.584 363.023 794.682 362.617 794.879 362.307C795.076 361.992 795.339 361.746 795.669 361.568C795.999 361.39 796.362 361.258 796.76 361.17C797.161 361.08 797.565 361.008 797.97 360.955C798.5 360.886 798.93 360.835 799.26 360.801C799.593 360.763 799.836 360.701 799.987 360.614C800.143 360.527 800.22 360.375 800.22 360.159V360.114C800.22 359.553 800.067 359.117 799.76 358.807C799.457 358.496 798.997 358.341 798.379 358.341C797.739 358.341 797.237 358.481 796.874 358.761C796.51 359.042 796.254 359.341 796.107 359.659L794.834 359.205C795.061 358.674 795.364 358.261 795.743 357.966C796.125 357.667 796.542 357.458 796.993 357.341C797.447 357.22 797.894 357.159 798.334 357.159C798.614 357.159 798.936 357.193 799.3 357.261C799.667 357.326 800.021 357.46 800.362 357.665C800.707 357.869 800.993 358.178 801.22 358.591C801.447 359.004 801.561 359.557 801.561 360.25V366H800.22V364.818H800.152C800.061 365.008 799.91 365.21 799.697 365.426C799.485 365.642 799.203 365.826 798.851 365.977C798.499 366.129 798.069 366.205 797.561 366.205ZM797.766 365C798.296 365 798.743 364.896 799.107 364.688C799.474 364.479 799.75 364.21 799.936 363.881C800.125 363.551 800.22 363.205 800.22 362.841V361.614C800.163 361.682 800.038 361.744 799.845 361.801C799.656 361.854 799.436 361.902 799.186 361.943C798.94 361.981 798.699 362.015 798.464 362.045C798.233 362.072 798.046 362.095 797.902 362.114C797.554 362.159 797.228 362.233 796.925 362.335C796.625 362.434 796.383 362.583 796.197 362.784C796.016 362.981 795.925 363.25 795.925 363.591C795.925 364.057 796.097 364.409 796.442 364.648C796.79 364.883 797.232 365 797.766 365ZM804.009 366V357.273H805.304V358.636H805.418C805.599 358.17 805.893 357.809 806.298 357.551C806.704 357.29 807.19 357.159 807.759 357.159C808.334 357.159 808.813 357.29 809.196 357.551C809.582 357.809 809.884 358.17 810.099 358.636H810.19C810.414 358.186 810.749 357.828 811.196 357.562C811.643 357.294 812.179 357.159 812.804 357.159C813.584 357.159 814.223 357.403 814.719 357.892C815.215 358.377 815.463 359.133 815.463 360.159V366H814.122V360.159C814.122 359.515 813.946 359.055 813.594 358.778C813.241 358.502 812.827 358.364 812.349 358.364C811.736 358.364 811.26 358.549 810.923 358.92C810.586 359.288 810.418 359.754 810.418 360.318V366H809.054V360.023C809.054 359.527 808.893 359.127 808.571 358.824C808.249 358.517 807.834 358.364 807.327 358.364C806.978 358.364 806.652 358.456 806.349 358.642C806.05 358.828 805.808 359.085 805.622 359.415C805.44 359.741 805.349 360.117 805.349 360.545V366H804.009ZM821.574 366.182C820.733 366.182 820.008 365.996 819.398 365.625C818.792 365.25 818.324 364.727 817.994 364.057C817.669 363.383 817.506 362.598 817.506 361.705C817.506 360.811 817.669 360.023 817.994 359.341C818.324 358.655 818.782 358.121 819.369 357.739C819.96 357.352 820.65 357.159 821.438 357.159C821.892 357.159 822.341 357.235 822.784 357.386C823.227 357.538 823.631 357.784 823.994 358.125C824.358 358.462 824.648 358.909 824.864 359.466C825.08 360.023 825.188 360.708 825.188 361.523V362.091H818.46V360.932H823.824C823.824 360.439 823.725 360 823.528 359.614C823.335 359.227 823.059 358.922 822.699 358.699C822.343 358.475 821.922 358.364 821.438 358.364C820.903 358.364 820.441 358.496 820.051 358.761C819.665 359.023 819.367 359.364 819.159 359.784C818.951 360.205 818.847 360.655 818.847 361.136V361.909C818.847 362.568 818.96 363.127 819.188 363.585C819.419 364.04 819.739 364.386 820.148 364.625C820.557 364.86 821.032 364.977 821.574 364.977C821.926 364.977 822.244 364.928 822.528 364.83C822.816 364.727 823.064 364.576 823.273 364.375C823.481 364.17 823.642 363.917 823.756 363.614L825.051 363.977C824.915 364.417 824.686 364.803 824.364 365.136C824.042 365.466 823.644 365.723 823.17 365.909C822.697 366.091 822.165 366.182 821.574 366.182Z" fill="#ADB5BD"/>
<rect x="720" y="638" width="111" height="50" rx="6" fill="#FFC107"/>
<path d="M751.472 660.562C751.419 660.066 751.195 659.68 750.801 659.403C750.411 659.127 749.903 658.989 749.278 658.989C748.839 658.989 748.462 659.055 748.148 659.188C747.833 659.32 747.593 659.5 747.426 659.727C747.259 659.955 747.174 660.214 747.17 660.506C747.17 660.748 747.225 660.958 747.335 661.136C747.449 661.314 747.602 661.466 747.795 661.591C747.989 661.712 748.203 661.814 748.438 661.898C748.672 661.981 748.909 662.051 749.148 662.108L750.239 662.381C750.678 662.483 751.1 662.621 751.506 662.795C751.915 662.97 752.28 663.189 752.602 663.455C752.928 663.72 753.186 664.04 753.375 664.415C753.564 664.79 753.659 665.229 753.659 665.733C753.659 666.415 753.485 667.015 753.136 667.534C752.788 668.049 752.284 668.453 751.625 668.744C750.97 669.032 750.176 669.176 749.244 669.176C748.339 669.176 747.553 669.036 746.886 668.756C746.223 668.475 745.705 668.066 745.33 667.528C744.958 666.991 744.758 666.335 744.727 665.562H746.801C746.831 665.968 746.956 666.305 747.176 666.574C747.396 666.843 747.682 667.044 748.034 667.176C748.39 667.309 748.788 667.375 749.227 667.375C749.686 667.375 750.087 667.307 750.432 667.17C750.78 667.03 751.053 666.837 751.25 666.591C751.447 666.341 751.547 666.049 751.551 665.716C751.547 665.413 751.458 665.163 751.284 664.966C751.11 664.765 750.866 664.598 750.551 664.466C750.241 664.33 749.877 664.208 749.46 664.102L748.136 663.761C747.178 663.515 746.42 663.142 745.864 662.642C745.311 662.138 745.034 661.47 745.034 660.636C745.034 659.951 745.22 659.35 745.591 658.835C745.966 658.32 746.475 657.92 747.119 657.636C747.763 657.348 748.492 657.205 749.307 657.205C750.133 657.205 750.856 657.348 751.477 657.636C752.102 657.92 752.593 658.316 752.949 658.824C753.305 659.328 753.489 659.907 753.5 660.562H751.472ZM762.874 657.364H764.982V664.966C764.982 665.799 764.785 666.532 764.391 667.165C764 667.797 763.451 668.292 762.743 668.648C762.035 669 761.207 669.176 760.26 669.176C759.309 669.176 758.48 669 757.771 668.648C757.063 668.292 756.514 667.797 756.124 667.165C755.733 666.532 755.538 665.799 755.538 664.966V657.364H757.646V664.79C757.646 665.275 757.752 665.706 757.964 666.085C758.18 666.464 758.483 666.761 758.874 666.977C759.264 667.189 759.726 667.295 760.26 667.295C760.794 667.295 761.256 667.189 761.646 666.977C762.04 666.761 762.343 666.464 762.555 666.085C762.768 665.706 762.874 665.275 762.874 664.79V657.364ZM767.273 669V657.364H771.727C772.568 657.364 773.267 657.496 773.824 657.761C774.384 658.023 774.803 658.381 775.08 658.835C775.36 659.29 775.5 659.805 775.5 660.381C775.5 660.854 775.409 661.259 775.227 661.597C775.045 661.93 774.801 662.201 774.494 662.409C774.188 662.617 773.845 662.767 773.466 662.858V662.972C773.879 662.994 774.275 663.121 774.653 663.352C775.036 663.58 775.348 663.902 775.591 664.318C775.833 664.735 775.955 665.239 775.955 665.83C775.955 666.432 775.809 666.973 775.517 667.455C775.225 667.932 774.786 668.309 774.199 668.585C773.612 668.862 772.873 669 771.983 669H767.273ZM769.381 667.239H771.648C772.413 667.239 772.964 667.093 773.301 666.801C773.642 666.506 773.812 666.127 773.812 665.665C773.812 665.32 773.727 665.009 773.557 664.733C773.386 664.453 773.144 664.233 772.83 664.074C772.515 663.911 772.14 663.83 771.705 663.83H769.381V667.239ZM769.381 662.312H771.466C771.83 662.312 772.157 662.246 772.449 662.114C772.741 661.977 772.97 661.786 773.136 661.54C773.307 661.29 773.392 660.994 773.392 660.653C773.392 660.203 773.233 659.831 772.915 659.54C772.6 659.248 772.133 659.102 771.511 659.102H769.381V662.312ZM777.788 657.364H780.368L783.822 665.795H783.959L787.413 657.364H789.993V669H787.97V661.006H787.862L784.646 668.966H783.135L779.919 660.989H779.811V669H777.788V657.364ZM794.396 657.364V669H792.288V657.364H794.396ZM796.168 659.131V657.364H805.452V659.131H801.855V669H799.764V659.131H796.168Z" fill="#212529"/>
<path d="M627.898 351.727V375H625.17L612.489 356.727H612.261V375H609.443V351.727H612.17L624.898 370.045H625.125V351.727H627.898ZM638.31 375.409C637.204 375.409 636.2 375.201 635.298 374.784C634.397 374.36 633.681 373.75 633.151 372.955C632.62 372.152 632.355 371.182 632.355 370.045C632.355 369.045 632.552 368.235 632.946 367.614C633.34 366.985 633.866 366.492 634.526 366.136C635.185 365.78 635.912 365.515 636.707 365.341C637.51 365.159 638.317 365.015 639.128 364.909C640.188 364.773 641.048 364.67 641.707 364.602C642.374 364.527 642.859 364.402 643.162 364.227C643.473 364.053 643.628 363.75 643.628 363.318V363.227C643.628 362.106 643.321 361.235 642.707 360.614C642.101 359.992 641.181 359.682 639.946 359.682C638.666 359.682 637.662 359.962 636.935 360.523C636.207 361.083 635.696 361.682 635.401 362.318L632.855 361.409C633.31 360.348 633.916 359.523 634.673 358.932C635.438 358.333 636.272 357.917 637.173 357.682C638.082 357.439 638.976 357.318 639.855 357.318C640.416 357.318 641.06 357.386 641.787 357.523C642.522 357.652 643.23 357.92 643.912 358.33C644.601 358.739 645.173 359.356 645.628 360.182C646.082 361.008 646.31 362.114 646.31 363.5V375H643.628V372.636H643.491C643.31 373.015 643.007 373.42 642.582 373.852C642.158 374.284 641.594 374.652 640.889 374.955C640.185 375.258 639.325 375.409 638.31 375.409ZM638.719 373C639.779 373 640.673 372.792 641.401 372.375C642.135 371.958 642.688 371.42 643.06 370.761C643.438 370.102 643.628 369.409 643.628 368.682V366.227C643.514 366.364 643.264 366.489 642.878 366.602C642.499 366.708 642.06 366.803 641.56 366.886C641.067 366.962 640.586 367.03 640.116 367.091C639.654 367.144 639.279 367.189 638.991 367.227C638.295 367.318 637.643 367.466 637.037 367.67C636.438 367.867 635.954 368.167 635.582 368.568C635.219 368.962 635.037 369.5 635.037 370.182C635.037 371.114 635.382 371.818 636.071 372.295C636.768 372.765 637.651 373 638.719 373ZM651.205 375V357.545H653.795V360.273H654.023C654.386 359.341 654.973 358.617 655.784 358.102C656.595 357.58 657.568 357.318 658.705 357.318C659.856 357.318 660.814 357.58 661.58 358.102C662.352 358.617 662.955 359.341 663.386 360.273H663.568C664.015 359.371 664.686 358.655 665.58 358.125C666.473 357.587 667.545 357.318 668.795 357.318C670.356 357.318 671.633 357.807 672.625 358.784C673.617 359.754 674.114 361.265 674.114 363.318V375H671.432V363.318C671.432 362.03 671.08 361.11 670.375 360.557C669.67 360.004 668.841 359.727 667.886 359.727C666.659 359.727 665.708 360.098 665.034 360.841C664.36 361.576 664.023 362.508 664.023 363.636V375H661.295V363.045C661.295 362.053 660.973 361.254 660.33 360.648C659.686 360.034 658.856 359.727 657.841 359.727C657.144 359.727 656.492 359.913 655.886 360.284C655.288 360.655 654.803 361.17 654.432 361.83C654.068 362.481 653.886 363.235 653.886 364.091V375H651.205ZM686.335 375.364C684.653 375.364 683.203 374.992 681.983 374.25C680.771 373.5 679.835 372.455 679.176 371.114C678.525 369.765 678.199 368.197 678.199 366.409C678.199 364.621 678.525 363.045 679.176 361.682C679.835 360.311 680.752 359.242 681.926 358.477C683.108 357.705 684.487 357.318 686.062 357.318C686.972 357.318 687.869 357.47 688.756 357.773C689.642 358.076 690.449 358.568 691.176 359.25C691.903 359.924 692.483 360.818 692.915 361.932C693.347 363.045 693.562 364.417 693.562 366.045V367.182H680.108V364.864H690.835C690.835 363.879 690.638 363 690.244 362.227C689.858 361.455 689.305 360.845 688.585 360.398C687.873 359.951 687.032 359.727 686.062 359.727C684.994 359.727 684.07 359.992 683.29 360.523C682.517 361.045 681.922 361.727 681.506 362.568C681.089 363.409 680.881 364.311 680.881 365.273V366.818C680.881 368.136 681.108 369.254 681.562 370.17C682.025 371.08 682.665 371.773 683.483 372.25C684.301 372.72 685.252 372.955 686.335 372.955C687.04 372.955 687.676 372.856 688.244 372.659C688.82 372.455 689.316 372.152 689.733 371.75C690.15 371.341 690.472 370.833 690.699 370.227L693.29 370.955C693.017 371.833 692.559 372.606 691.915 373.273C691.271 373.932 690.475 374.447 689.528 374.818C688.581 375.182 687.517 375.364 686.335 375.364ZM699.597 375.182C699.036 375.182 698.555 374.981 698.153 374.58C697.752 374.178 697.551 373.697 697.551 373.136C697.551 372.576 697.752 372.095 698.153 371.693C698.555 371.292 699.036 371.091 699.597 371.091C700.157 371.091 700.638 371.292 701.04 371.693C701.441 372.095 701.642 372.576 701.642 373.136C701.642 373.508 701.547 373.848 701.358 374.159C701.176 374.47 700.93 374.72 700.619 374.909C700.316 375.091 699.975 375.182 699.597 375.182ZM699.597 362.227C699.036 362.227 698.555 362.027 698.153 361.625C697.752 361.223 697.551 360.742 697.551 360.182C697.551 359.621 697.752 359.14 698.153 358.739C698.555 358.337 699.036 358.136 699.597 358.136C700.157 358.136 700.638 358.337 701.04 358.739C701.441 359.14 701.642 359.621 701.642 360.182C701.642 360.553 701.547 360.894 701.358 361.205C701.176 361.515 700.93 361.765 700.619 361.955C700.316 362.136 699.975 362.227 699.597 362.227Z" fill="black"/>
<path d="M552.389 468L546.026 444.727H548.889L553.753 463.682H553.98L558.935 444.727H562.116L567.071 463.682H567.298L572.162 444.727H575.026L568.662 468H565.753L560.616 449.455H560.435L555.298 468H552.389ZM580.855 457.5V468H578.173V444.727H580.855V453.273H581.082C581.491 452.371 582.105 451.655 582.923 451.125C583.749 450.587 584.848 450.318 586.219 450.318C587.408 450.318 588.45 450.557 589.344 451.034C590.238 451.504 590.931 452.227 591.423 453.205C591.923 454.174 592.173 455.409 592.173 456.909V468H589.491V457.091C589.491 455.705 589.132 454.633 588.412 453.875C587.7 453.11 586.711 452.727 585.446 452.727C584.567 452.727 583.779 452.913 583.082 453.284C582.393 453.655 581.848 454.197 581.446 454.909C581.052 455.621 580.855 456.485 580.855 457.5ZM602.216 468.409C601.11 468.409 600.106 468.201 599.205 467.784C598.303 467.36 597.587 466.75 597.057 465.955C596.527 465.152 596.261 464.182 596.261 463.045C596.261 462.045 596.458 461.235 596.852 460.614C597.246 459.985 597.773 459.492 598.432 459.136C599.091 458.78 599.818 458.515 600.614 458.341C601.417 458.159 602.223 458.015 603.034 457.909C604.095 457.773 604.955 457.67 605.614 457.602C606.28 457.527 606.765 457.402 607.068 457.227C607.379 457.053 607.534 456.75 607.534 456.318V456.227C607.534 455.106 607.227 454.235 606.614 453.614C606.008 452.992 605.087 452.682 603.852 452.682C602.572 452.682 601.568 452.962 600.841 453.523C600.114 454.083 599.602 454.682 599.307 455.318L596.761 454.409C597.216 453.348 597.822 452.523 598.58 451.932C599.345 451.333 600.178 450.917 601.08 450.682C601.989 450.439 602.883 450.318 603.761 450.318C604.322 450.318 604.966 450.386 605.693 450.523C606.428 450.652 607.136 450.92 607.818 451.33C608.508 451.739 609.08 452.356 609.534 453.182C609.989 454.008 610.216 455.114 610.216 456.5V468H607.534V465.636H607.398C607.216 466.015 606.913 466.42 606.489 466.852C606.064 467.284 605.5 467.652 604.795 467.955C604.091 468.258 603.231 468.409 602.216 468.409ZM602.625 466C603.686 466 604.58 465.792 605.307 465.375C606.042 464.958 606.595 464.42 606.966 463.761C607.345 463.102 607.534 462.409 607.534 461.682V459.227C607.42 459.364 607.17 459.489 606.784 459.602C606.405 459.708 605.966 459.803 605.466 459.886C604.973 459.962 604.492 460.03 604.023 460.091C603.561 460.144 603.186 460.189 602.898 460.227C602.201 460.318 601.549 460.466 600.943 460.67C600.345 460.867 599.86 461.167 599.489 461.568C599.125 461.962 598.943 462.5 598.943 463.182C598.943 464.114 599.288 464.818 599.977 465.295C600.674 465.765 601.557 466 602.625 466ZM622.702 450.545V452.818H613.656V450.545H622.702ZM616.293 446.364H618.974V463C618.974 463.758 619.084 464.326 619.304 464.705C619.531 465.076 619.819 465.326 620.168 465.455C620.524 465.576 620.899 465.636 621.293 465.636C621.588 465.636 621.83 465.621 622.02 465.591C622.209 465.553 622.361 465.523 622.474 465.5L623.02 467.909C622.838 467.977 622.584 468.045 622.259 468.114C621.933 468.189 621.52 468.227 621.02 468.227C620.262 468.227 619.52 468.064 618.793 467.739C618.073 467.413 617.474 466.917 616.997 466.25C616.527 465.583 616.293 464.742 616.293 463.727V446.364ZM638.787 454.455L636.378 455.136C636.226 454.735 636.003 454.345 635.707 453.966C635.42 453.58 635.026 453.261 634.526 453.011C634.026 452.761 633.385 452.636 632.605 452.636C631.537 452.636 630.647 452.883 629.935 453.375C629.23 453.86 628.878 454.477 628.878 455.227C628.878 455.894 629.12 456.42 629.605 456.807C630.09 457.193 630.848 457.515 631.878 457.773L634.469 458.409C636.029 458.788 637.192 459.367 637.957 460.148C638.723 460.92 639.105 461.917 639.105 463.136C639.105 464.136 638.817 465.03 638.241 465.818C637.673 466.606 636.878 467.227 635.855 467.682C634.832 468.136 633.643 468.364 632.287 468.364C630.507 468.364 629.033 467.977 627.866 467.205C626.7 466.432 625.961 465.303 625.651 463.818L628.196 463.182C628.438 464.121 628.897 464.826 629.571 465.295C630.253 465.765 631.143 466 632.241 466C633.491 466 634.484 465.735 635.219 465.205C635.961 464.667 636.332 464.023 636.332 463.273C636.332 462.667 636.12 462.159 635.696 461.75C635.272 461.333 634.62 461.023 633.741 460.818L630.832 460.136C629.234 459.758 628.06 459.17 627.31 458.375C626.567 457.572 626.196 456.568 626.196 455.364C626.196 454.379 626.473 453.508 627.026 452.75C627.586 451.992 628.348 451.398 629.31 450.966C630.279 450.534 631.378 450.318 632.605 450.318C634.332 450.318 635.688 450.697 636.673 451.455C637.666 452.212 638.37 453.212 638.787 454.455ZM663.142 460.864V450.545H665.824V468H663.142V465.045H662.96C662.551 465.932 661.915 466.686 661.051 467.307C660.188 467.92 659.097 468.227 657.778 468.227C656.688 468.227 655.718 467.989 654.869 467.511C654.021 467.027 653.354 466.299 652.869 465.33C652.384 464.352 652.142 463.121 652.142 461.636V450.545H654.824V461.455C654.824 462.727 655.18 463.742 655.892 464.5C656.612 465.258 657.528 465.636 658.642 465.636C659.309 465.636 659.987 465.466 660.676 465.125C661.373 464.784 661.956 464.261 662.426 463.557C662.903 462.852 663.142 461.955 663.142 460.864ZM670.736 474.545V450.545H673.327V453.318H673.645C673.842 453.015 674.115 452.629 674.463 452.159C674.819 451.682 675.327 451.258 675.986 450.886C676.652 450.508 677.554 450.318 678.69 450.318C680.16 450.318 681.455 450.686 682.577 451.42C683.698 452.155 684.573 453.197 685.202 454.545C685.83 455.894 686.145 457.485 686.145 459.318C686.145 461.167 685.83 462.769 685.202 464.125C684.573 465.473 683.702 466.519 682.588 467.261C681.474 467.996 680.19 468.364 678.736 468.364C677.615 468.364 676.717 468.178 676.043 467.807C675.368 467.428 674.849 467 674.486 466.523C674.122 466.038 673.842 465.636 673.645 465.318H673.418V474.545H670.736ZM673.372 459.273C673.372 460.591 673.565 461.754 673.952 462.761C674.338 463.761 674.902 464.545 675.645 465.114C676.387 465.674 677.296 465.955 678.372 465.955C679.493 465.955 680.429 465.659 681.179 465.068C681.937 464.47 682.505 463.667 682.884 462.659C683.27 461.644 683.463 460.515 683.463 459.273C683.463 458.045 683.274 456.939 682.895 455.955C682.524 454.962 681.959 454.178 681.202 453.602C680.452 453.019 679.509 452.727 678.372 452.727C677.281 452.727 676.365 453.004 675.622 453.557C674.88 454.102 674.319 454.867 673.94 455.852C673.562 456.83 673.372 457.97 673.372 459.273ZM693.736 461.455V461.318C693.751 459.871 693.902 458.72 694.19 457.864C694.478 457.008 694.887 456.314 695.418 455.784C695.948 455.254 696.584 454.765 697.327 454.318C697.774 454.045 698.175 453.723 698.531 453.352C698.887 452.973 699.168 452.538 699.372 452.045C699.584 451.553 699.69 451.008 699.69 450.409C699.69 449.667 699.516 449.023 699.168 448.477C698.819 447.932 698.353 447.511 697.77 447.216C697.187 446.92 696.539 446.773 695.827 446.773C695.205 446.773 694.607 446.902 694.031 447.159C693.455 447.417 692.974 447.822 692.588 448.375C692.202 448.928 691.978 449.652 691.918 450.545H689.054C689.115 449.258 689.448 448.155 690.054 447.239C690.668 446.322 691.474 445.621 692.474 445.136C693.482 444.652 694.599 444.409 695.827 444.409C697.16 444.409 698.319 444.674 699.304 445.205C700.296 445.735 701.062 446.462 701.599 447.386C702.145 448.311 702.418 449.364 702.418 450.545C702.418 451.379 702.289 452.133 702.031 452.807C701.781 453.481 701.418 454.083 700.94 454.614C700.471 455.144 699.902 455.614 699.236 456.023C698.569 456.439 698.035 456.879 697.634 457.341C697.232 457.795 696.94 458.337 696.759 458.966C696.577 459.595 696.478 460.379 696.463 461.318V461.455H693.736ZM695.19 468.182C694.63 468.182 694.149 467.981 693.747 467.58C693.346 467.178 693.145 466.697 693.145 466.136C693.145 465.576 693.346 465.095 693.747 464.693C694.149 464.292 694.63 464.091 695.19 464.091C695.751 464.091 696.232 464.292 696.634 464.693C697.035 465.095 697.236 465.576 697.236 466.136C697.236 466.508 697.141 466.848 696.952 467.159C696.77 467.47 696.524 467.72 696.213 467.909C695.91 468.091 695.569 468.182 695.19 468.182Z" fill="black"/>
<path d="M483.349 590V566.727H497.304V569.227H486.168V577.091H496.259V579.591H486.168V590H483.349ZM506.903 590.409C505.797 590.409 504.794 590.201 503.892 589.784C502.991 589.36 502.275 588.75 501.744 587.955C501.214 587.152 500.949 586.182 500.949 585.045C500.949 584.045 501.146 583.235 501.54 582.614C501.934 581.985 502.46 581.492 503.119 581.136C503.778 580.78 504.506 580.515 505.301 580.341C506.104 580.159 506.911 580.015 507.722 579.909C508.782 579.773 509.642 579.67 510.301 579.602C510.968 579.527 511.453 579.402 511.756 579.227C512.066 579.053 512.222 578.75 512.222 578.318V578.227C512.222 577.106 511.915 576.235 511.301 575.614C510.695 574.992 509.775 574.682 508.54 574.682C507.259 574.682 506.256 574.962 505.528 575.523C504.801 576.083 504.29 576.682 503.994 577.318L501.449 576.409C501.903 575.348 502.509 574.523 503.267 573.932C504.032 573.333 504.866 572.917 505.767 572.682C506.676 572.439 507.57 572.318 508.449 572.318C509.009 572.318 509.653 572.386 510.381 572.523C511.116 572.652 511.824 572.92 512.506 573.33C513.195 573.739 513.767 574.356 514.222 575.182C514.676 576.008 514.903 577.114 514.903 578.5V590H512.222V587.636H512.085C511.903 588.015 511.6 588.42 511.176 588.852C510.752 589.284 510.188 589.652 509.483 589.955C508.778 590.258 507.919 590.409 506.903 590.409ZM507.312 588C508.373 588 509.267 587.792 509.994 587.375C510.729 586.958 511.282 586.42 511.653 585.761C512.032 585.102 512.222 584.409 512.222 583.682V581.227C512.108 581.364 511.858 581.489 511.472 581.602C511.093 581.708 510.653 581.803 510.153 581.886C509.661 581.962 509.18 582.03 508.71 582.091C508.248 582.144 507.873 582.189 507.585 582.227C506.888 582.318 506.237 582.466 505.631 582.67C505.032 582.867 504.547 583.167 504.176 583.568C503.813 583.962 503.631 584.5 503.631 585.182C503.631 586.114 503.975 586.818 504.665 587.295C505.362 587.765 506.244 588 507.312 588ZM533.446 572.545L526.991 590H524.264L517.81 572.545H520.719L525.537 586.455H525.719L530.537 572.545H533.446ZM543.452 590.364C541.876 590.364 540.493 589.989 539.304 589.239C538.122 588.489 537.198 587.439 536.531 586.091C535.872 584.742 535.543 583.167 535.543 581.364C535.543 579.545 535.872 577.958 536.531 576.602C537.198 575.246 538.122 574.193 539.304 573.443C540.493 572.693 541.876 572.318 543.452 572.318C545.027 572.318 546.406 572.693 547.588 573.443C548.777 574.193 549.702 575.246 550.361 576.602C551.027 577.958 551.361 579.545 551.361 581.364C551.361 583.167 551.027 584.742 550.361 586.091C549.702 587.439 548.777 588.489 547.588 589.239C546.406 589.989 545.027 590.364 543.452 590.364ZM543.452 587.955C544.649 587.955 545.634 587.648 546.406 587.034C547.179 586.42 547.751 585.614 548.122 584.614C548.493 583.614 548.679 582.53 548.679 581.364C548.679 580.197 548.493 579.11 548.122 578.102C547.751 577.095 547.179 576.28 546.406 575.659C545.634 575.038 544.649 574.727 543.452 574.727C542.255 574.727 541.27 575.038 540.497 575.659C539.724 576.28 539.152 577.095 538.781 578.102C538.41 579.11 538.224 580.197 538.224 581.364C538.224 582.53 538.41 583.614 538.781 584.614C539.152 585.614 539.724 586.42 540.497 587.034C541.27 587.648 542.255 587.955 543.452 587.955ZM555.455 590V572.545H558.045V575.182H558.227C558.545 574.318 559.121 573.617 559.955 573.08C560.788 572.542 561.727 572.273 562.773 572.273C562.97 572.273 563.216 572.277 563.511 572.284C563.807 572.292 564.03 572.303 564.182 572.318V575.045C564.091 575.023 563.883 574.989 563.557 574.943C563.239 574.89 562.902 574.864 562.545 574.864C561.697 574.864 560.939 575.042 560.273 575.398C559.614 575.746 559.091 576.231 558.705 576.852C558.326 577.466 558.136 578.167 558.136 578.955V590H555.455ZM567.361 590V572.545H570.043V590H567.361ZM568.724 569.636C568.202 569.636 567.751 569.458 567.372 569.102C567.001 568.746 566.815 568.318 566.815 567.818C566.815 567.318 567.001 566.89 567.372 566.534C567.751 566.178 568.202 566 568.724 566C569.247 566 569.694 566.178 570.065 566.534C570.444 566.89 570.634 567.318 570.634 567.818C570.634 568.318 570.444 568.746 570.065 569.102C569.694 569.458 569.247 569.636 568.724 569.636ZM582.545 572.545V574.818H573.5V572.545H582.545ZM576.136 568.364H578.818V585C578.818 585.758 578.928 586.326 579.148 586.705C579.375 587.076 579.663 587.326 580.011 587.455C580.367 587.576 580.742 587.636 581.136 587.636C581.432 587.636 581.674 587.621 581.864 587.591C582.053 587.553 582.205 587.523 582.318 587.5L582.864 589.909C582.682 589.977 582.428 590.045 582.102 590.114C581.777 590.189 581.364 590.227 580.864 590.227C580.106 590.227 579.364 590.064 578.636 589.739C577.917 589.413 577.318 588.917 576.841 588.25C576.371 587.583 576.136 586.742 576.136 585.727V568.364ZM593.71 590.364C592.028 590.364 590.578 589.992 589.358 589.25C588.146 588.5 587.21 587.455 586.551 586.114C585.9 584.765 585.574 583.197 585.574 581.409C585.574 579.621 585.9 578.045 586.551 576.682C587.21 575.311 588.127 574.242 589.301 573.477C590.483 572.705 591.862 572.318 593.438 572.318C594.347 572.318 595.244 572.47 596.131 572.773C597.017 573.076 597.824 573.568 598.551 574.25C599.278 574.924 599.858 575.818 600.29 576.932C600.722 578.045 600.938 579.417 600.938 581.045V582.182H587.483V579.864H598.21C598.21 578.879 598.013 578 597.619 577.227C597.233 576.455 596.68 575.845 595.96 575.398C595.248 574.951 594.407 574.727 593.438 574.727C592.369 574.727 591.445 574.992 590.665 575.523C589.892 576.045 589.297 576.727 588.881 577.568C588.464 578.409 588.256 579.311 588.256 580.273V581.818C588.256 583.136 588.483 584.254 588.938 585.17C589.4 586.08 590.04 586.773 590.858 587.25C591.676 587.72 592.627 587.955 593.71 587.955C594.415 587.955 595.051 587.856 595.619 587.659C596.195 587.455 596.691 587.152 597.108 586.75C597.525 586.341 597.847 585.833 598.074 585.227L600.665 585.955C600.392 586.833 599.934 587.606 599.29 588.273C598.646 588.932 597.85 589.447 596.903 589.818C595.956 590.182 594.892 590.364 593.71 590.364ZM627.108 572.545C626.972 571.394 626.419 570.5 625.449 569.864C624.479 569.227 623.29 568.909 621.881 568.909C620.85 568.909 619.949 569.076 619.176 569.409C618.411 569.742 617.813 570.201 617.381 570.784C616.956 571.367 616.744 572.03 616.744 572.773C616.744 573.394 616.892 573.928 617.188 574.375C617.491 574.814 617.877 575.182 618.347 575.477C618.816 575.765 619.309 576.004 619.824 576.193C620.339 576.375 620.812 576.523 621.244 576.636L623.608 577.273C624.214 577.432 624.888 577.652 625.631 577.932C626.381 578.212 627.097 578.595 627.778 579.08C628.468 579.557 629.036 580.17 629.483 580.92C629.93 581.67 630.153 582.591 630.153 583.682C630.153 584.939 629.824 586.076 629.165 587.091C628.513 588.106 627.559 588.913 626.301 589.511C625.051 590.11 623.532 590.409 621.744 590.409C620.078 590.409 618.634 590.14 617.415 589.602C616.203 589.064 615.248 588.314 614.551 587.352C613.862 586.39 613.472 585.273 613.381 584H616.29C616.366 584.879 616.661 585.606 617.176 586.182C617.699 586.75 618.358 587.174 619.153 587.455C619.956 587.727 620.82 587.864 621.744 587.864C622.82 587.864 623.786 587.689 624.642 587.341C625.498 586.985 626.176 586.492 626.676 585.864C627.176 585.227 627.426 584.485 627.426 583.636C627.426 582.864 627.21 582.235 626.778 581.75C626.347 581.265 625.778 580.871 625.074 580.568C624.369 580.265 623.608 580 622.79 579.773L619.926 578.955C618.108 578.432 616.669 577.686 615.608 576.716C614.547 575.746 614.017 574.477 614.017 572.909C614.017 571.606 614.369 570.47 615.074 569.5C615.786 568.523 616.741 567.765 617.938 567.227C619.142 566.682 620.487 566.409 621.972 566.409C623.472 566.409 624.805 566.678 625.972 567.216C627.138 567.746 628.063 568.473 628.744 569.398C629.434 570.322 629.797 571.371 629.835 572.545H627.108ZM634.423 596.545V572.545H637.014V575.318H637.332C637.529 575.015 637.802 574.629 638.151 574.159C638.507 573.682 639.014 573.258 639.673 572.886C640.34 572.508 641.241 572.318 642.378 572.318C643.848 572.318 645.143 572.686 646.264 573.42C647.385 574.155 648.26 575.197 648.889 576.545C649.518 577.894 649.832 579.485 649.832 581.318C649.832 583.167 649.518 584.769 648.889 586.125C648.26 587.473 647.389 588.519 646.276 589.261C645.162 589.996 643.878 590.364 642.423 590.364C641.302 590.364 640.404 590.178 639.73 589.807C639.056 589.428 638.537 589 638.173 588.523C637.81 588.038 637.529 587.636 637.332 587.318H637.105V596.545H634.423ZM637.06 581.273C637.06 582.591 637.253 583.754 637.639 584.761C638.026 585.761 638.59 586.545 639.332 587.114C640.075 587.674 640.984 587.955 642.06 587.955C643.181 587.955 644.116 587.659 644.866 587.068C645.624 586.47 646.192 585.667 646.571 584.659C646.957 583.644 647.151 582.515 647.151 581.273C647.151 580.045 646.961 578.939 646.582 577.955C646.211 576.962 645.647 576.178 644.889 575.602C644.139 575.019 643.196 574.727 642.06 574.727C640.969 574.727 640.052 575.004 639.31 575.557C638.567 576.102 638.007 576.867 637.628 577.852C637.249 578.83 637.06 579.97 637.06 581.273ZM661.014 590.364C659.438 590.364 658.056 589.989 656.866 589.239C655.685 588.489 654.76 587.439 654.094 586.091C653.435 584.742 653.105 583.167 653.105 581.364C653.105 579.545 653.435 577.958 654.094 576.602C654.76 575.246 655.685 574.193 656.866 573.443C658.056 572.693 659.438 572.318 661.014 572.318C662.59 572.318 663.969 572.693 665.151 573.443C666.34 574.193 667.264 575.246 667.923 576.602C668.59 577.958 668.923 579.545 668.923 581.364C668.923 583.167 668.59 584.742 667.923 586.091C667.264 587.439 666.34 588.489 665.151 589.239C663.969 589.989 662.59 590.364 661.014 590.364ZM661.014 587.955C662.211 587.955 663.196 587.648 663.969 587.034C664.741 586.42 665.313 585.614 665.685 584.614C666.056 583.614 666.241 582.53 666.241 581.364C666.241 580.197 666.056 579.11 665.685 578.102C665.313 577.095 664.741 576.28 663.969 575.659C663.196 575.038 662.211 574.727 661.014 574.727C659.817 574.727 658.832 575.038 658.06 575.659C657.287 576.28 656.715 577.095 656.344 578.102C655.973 579.11 655.787 580.197 655.787 581.364C655.787 582.53 655.973 583.614 656.344 584.614C656.715 585.614 657.287 586.42 658.06 587.034C658.832 587.648 659.817 587.955 661.014 587.955ZM673.017 590V572.545H675.608V575.182H675.79C676.108 574.318 676.684 573.617 677.517 573.08C678.35 572.542 679.29 572.273 680.335 572.273C680.532 572.273 680.778 572.277 681.074 572.284C681.369 572.292 681.593 572.303 681.744 572.318V575.045C681.653 575.023 681.445 574.989 681.119 574.943C680.801 574.89 680.464 574.864 680.108 574.864C679.259 574.864 678.502 575.042 677.835 575.398C677.176 575.746 676.653 576.231 676.267 576.852C675.888 577.466 675.699 578.167 675.699 578.955V590H673.017ZM693.608 572.545V574.818H684.562V572.545H693.608ZM687.199 568.364H689.881V585C689.881 585.758 689.991 586.326 690.21 586.705C690.438 587.076 690.725 587.326 691.074 587.455C691.43 587.576 691.805 587.636 692.199 587.636C692.494 587.636 692.737 587.621 692.926 587.591C693.116 587.553 693.267 587.523 693.381 587.5L693.926 589.909C693.744 589.977 693.491 590.045 693.165 590.114C692.839 590.189 692.426 590.227 691.926 590.227C691.169 590.227 690.426 590.064 689.699 589.739C688.979 589.413 688.381 588.917 687.903 588.25C687.434 587.583 687.199 586.742 687.199 585.727V568.364ZM699.597 590.182C699.036 590.182 698.555 589.981 698.153 589.58C697.752 589.178 697.551 588.697 697.551 588.136C697.551 587.576 697.752 587.095 698.153 586.693C698.555 586.292 699.036 586.091 699.597 586.091C700.157 586.091 700.638 586.292 701.04 586.693C701.441 587.095 701.642 587.576 701.642 588.136C701.642 588.508 701.547 588.848 701.358 589.159C701.176 589.47 700.93 589.72 700.619 589.909C700.316 590.091 699.975 590.182 699.597 590.182ZM699.597 577.227C699.036 577.227 698.555 577.027 698.153 576.625C697.752 576.223 697.551 575.742 697.551 575.182C697.551 574.621 697.752 574.14 698.153 573.739C698.555 573.337 699.036 573.136 699.597 573.136C700.157 573.136 700.638 573.337 701.04 573.739C701.441 574.14 701.642 574.621 701.642 575.182C701.642 575.553 701.547 575.894 701.358 576.205C701.176 576.515 700.93 576.765 700.619 576.955C700.316 577.136 699.975 577.227 699.597 577.227Z" fill="black"/>
<rect x="732.5" y="572.5" width="15" height="15" rx="7.5" fill="white" stroke="#ABB5BE"/>
<path d="M763.773 577.273C763.705 576.697 763.428 576.25 762.943 575.932C762.458 575.614 761.864 575.455 761.159 575.455C760.644 575.455 760.193 575.538 759.807 575.705C759.424 575.871 759.125 576.1 758.909 576.392C758.697 576.684 758.591 577.015 758.591 577.386C758.591 577.697 758.665 577.964 758.812 578.188C758.964 578.407 759.157 578.591 759.392 578.739C759.627 578.883 759.873 579.002 760.131 579.097C760.388 579.187 760.625 579.261 760.841 579.318L762.023 579.636C762.326 579.716 762.663 579.826 763.034 579.966C763.409 580.106 763.767 580.297 764.108 580.54C764.453 580.778 764.737 581.085 764.96 581.46C765.184 581.835 765.295 582.295 765.295 582.841C765.295 583.47 765.131 584.038 764.801 584.545C764.475 585.053 763.998 585.456 763.369 585.756C762.744 586.055 761.985 586.205 761.091 586.205C760.258 586.205 759.536 586.07 758.926 585.801C758.32 585.532 757.843 585.157 757.494 584.676C757.15 584.195 756.955 583.636 756.909 583H758.364C758.402 583.439 758.549 583.803 758.807 584.091C759.068 584.375 759.398 584.587 759.795 584.727C760.197 584.864 760.629 584.932 761.091 584.932C761.629 584.932 762.112 584.845 762.54 584.67C762.968 584.492 763.307 584.246 763.557 583.932C763.807 583.614 763.932 583.242 763.932 582.818C763.932 582.432 763.824 582.117 763.608 581.875C763.392 581.633 763.108 581.436 762.756 581.284C762.403 581.133 762.023 581 761.614 580.886L760.182 580.477C759.273 580.216 758.553 579.843 758.023 579.358C757.492 578.873 757.227 578.239 757.227 577.455C757.227 576.803 757.403 576.235 757.756 575.75C758.112 575.261 758.589 574.883 759.188 574.614C759.79 574.341 760.462 574.205 761.205 574.205C761.955 574.205 762.621 574.339 763.205 574.608C763.788 574.873 764.25 575.237 764.591 575.699C764.936 576.161 765.117 576.686 765.136 577.273H763.773ZM770.976 586.182C770.188 586.182 769.497 585.994 768.902 585.619C768.311 585.244 767.849 584.72 767.516 584.045C767.186 583.371 767.021 582.583 767.021 581.682C767.021 580.773 767.186 579.979 767.516 579.301C767.849 578.623 768.311 578.097 768.902 577.722C769.497 577.347 770.188 577.159 770.976 577.159C771.764 577.159 772.453 577.347 773.044 577.722C773.639 578.097 774.101 578.623 774.43 579.301C774.764 579.979 774.93 580.773 774.93 581.682C774.93 582.583 774.764 583.371 774.43 584.045C774.101 584.72 773.639 585.244 773.044 585.619C772.453 585.994 771.764 586.182 770.976 586.182ZM770.976 584.977C771.574 584.977 772.067 584.824 772.453 584.517C772.839 584.21 773.125 583.807 773.311 583.307C773.497 582.807 773.589 582.265 773.589 581.682C773.589 581.098 773.497 580.555 773.311 580.051C773.125 579.547 772.839 579.14 772.453 578.83C772.067 578.519 771.574 578.364 770.976 578.364C770.377 578.364 769.885 578.519 769.499 578.83C769.112 579.14 768.826 579.547 768.641 580.051C768.455 580.555 768.362 581.098 768.362 581.682C768.362 582.265 768.455 582.807 768.641 583.307C768.826 583.807 769.112 584.21 769.499 584.517C769.885 584.824 770.377 584.977 770.976 584.977ZM780.523 586.182C779.705 586.182 779 585.989 778.409 585.602C777.818 585.216 777.364 584.684 777.045 584.006C776.727 583.328 776.568 582.553 776.568 581.682C776.568 580.795 776.731 580.013 777.057 579.335C777.386 578.653 777.845 578.121 778.432 577.739C779.023 577.352 779.712 577.159 780.5 577.159C781.114 577.159 781.667 577.273 782.159 577.5C782.652 577.727 783.055 578.045 783.369 578.455C783.684 578.864 783.879 579.341 783.955 579.886H782.614C782.511 579.489 782.284 579.136 781.932 578.83C781.583 578.519 781.114 578.364 780.523 578.364C780 578.364 779.542 578.5 779.148 578.773C778.758 579.042 778.453 579.422 778.233 579.915C778.017 580.403 777.909 580.977 777.909 581.636C777.909 582.311 778.015 582.898 778.227 583.398C778.443 583.898 778.746 584.286 779.136 584.562C779.53 584.839 779.992 584.977 780.523 584.977C780.871 584.977 781.188 584.917 781.472 584.795C781.756 584.674 781.996 584.5 782.193 584.273C782.39 584.045 782.53 583.773 782.614 583.455H783.955C783.879 583.97 783.691 584.434 783.392 584.847C783.097 585.256 782.705 585.581 782.216 585.824C781.731 586.062 781.167 586.182 780.523 586.182ZM789.46 586.182C788.642 586.182 787.938 585.989 787.347 585.602C786.756 585.216 786.301 584.684 785.983 584.006C785.665 583.328 785.506 582.553 785.506 581.682C785.506 580.795 785.669 580.013 785.994 579.335C786.324 578.653 786.782 578.121 787.369 577.739C787.96 577.352 788.65 577.159 789.438 577.159C790.051 577.159 790.604 577.273 791.097 577.5C791.589 577.727 791.992 578.045 792.307 578.455C792.621 578.864 792.816 579.341 792.892 579.886H791.551C791.449 579.489 791.222 579.136 790.869 578.83C790.521 578.519 790.051 578.364 789.46 578.364C788.938 578.364 788.479 578.5 788.085 578.773C787.695 579.042 787.39 579.422 787.17 579.915C786.955 580.403 786.847 580.977 786.847 581.636C786.847 582.311 786.953 582.898 787.165 583.398C787.381 583.898 787.684 584.286 788.074 584.562C788.468 584.839 788.93 584.977 789.46 584.977C789.809 584.977 790.125 584.917 790.409 584.795C790.693 584.674 790.934 584.5 791.131 584.273C791.328 584.045 791.468 583.773 791.551 583.455H792.892C792.816 583.97 792.629 584.434 792.33 584.847C792.034 585.256 791.642 585.581 791.153 585.824C790.669 586.062 790.104 586.182 789.46 586.182ZM798.511 586.182C797.67 586.182 796.945 585.996 796.335 585.625C795.729 585.25 795.261 584.727 794.932 584.057C794.606 583.383 794.443 582.598 794.443 581.705C794.443 580.811 794.606 580.023 794.932 579.341C795.261 578.655 795.72 578.121 796.307 577.739C796.898 577.352 797.587 577.159 798.375 577.159C798.83 577.159 799.278 577.235 799.722 577.386C800.165 577.538 800.568 577.784 800.932 578.125C801.295 578.462 801.585 578.909 801.801 579.466C802.017 580.023 802.125 580.708 802.125 581.523V582.091H795.398V580.932H800.761C800.761 580.439 800.663 580 800.466 579.614C800.273 579.227 799.996 578.922 799.636 578.699C799.28 578.475 798.86 578.364 798.375 578.364C797.841 578.364 797.379 578.496 796.989 578.761C796.602 579.023 796.305 579.364 796.097 579.784C795.888 580.205 795.784 580.655 795.784 581.136V581.909C795.784 582.568 795.898 583.127 796.125 583.585C796.356 584.04 796.676 584.386 797.085 584.625C797.494 584.86 797.97 584.977 798.511 584.977C798.864 584.977 799.182 584.928 799.466 584.83C799.754 584.727 800.002 584.576 800.21 584.375C800.419 584.17 800.58 583.917 800.693 583.614L801.989 583.977C801.852 584.417 801.623 584.803 801.301 585.136C800.979 585.466 800.581 585.723 800.108 585.909C799.634 586.091 799.102 586.182 798.511 586.182ZM804.165 586V577.273H805.46V578.591H805.551C805.71 578.159 805.998 577.809 806.415 577.54C806.831 577.271 807.301 577.136 807.824 577.136C807.922 577.136 808.045 577.138 808.193 577.142C808.341 577.146 808.453 577.152 808.528 577.159V578.523C808.483 578.511 808.379 578.494 808.216 578.472C808.057 578.445 807.888 578.432 807.71 578.432C807.286 578.432 806.907 578.521 806.574 578.699C806.244 578.873 805.983 579.116 805.79 579.426C805.6 579.733 805.506 580.083 805.506 580.477V586H804.165Z" fill="#343A40"/>
<rect x="826.5" y="572.5" width="15" height="15" rx="7.5" fill="white" stroke="#ABB5BE"/>
<path d="M851.409 586V574.364H858.386V575.614H852.818V579.545H857.864V580.795H852.818V586H851.409ZM863.523 586.182C862.735 586.182 862.044 585.994 861.449 585.619C860.858 585.244 860.396 584.72 860.062 584.045C859.733 583.371 859.568 582.583 859.568 581.682C859.568 580.773 859.733 579.979 860.062 579.301C860.396 578.623 860.858 578.097 861.449 577.722C862.044 577.347 862.735 577.159 863.523 577.159C864.311 577.159 865 577.347 865.591 577.722C866.186 578.097 866.648 578.623 866.977 579.301C867.311 579.979 867.477 580.773 867.477 581.682C867.477 582.583 867.311 583.371 866.977 584.045C866.648 584.72 866.186 585.244 865.591 585.619C865 585.994 864.311 586.182 863.523 586.182ZM863.523 584.977C864.121 584.977 864.614 584.824 865 584.517C865.386 584.21 865.672 583.807 865.858 583.307C866.044 582.807 866.136 582.265 866.136 581.682C866.136 581.098 866.044 580.555 865.858 580.051C865.672 579.547 865.386 579.14 865 578.83C864.614 578.519 864.121 578.364 863.523 578.364C862.924 578.364 862.432 578.519 862.045 578.83C861.659 579.14 861.373 579.547 861.188 580.051C861.002 580.555 860.909 581.098 860.909 581.682C860.909 582.265 861.002 582.807 861.188 583.307C861.373 583.807 861.659 584.21 862.045 584.517C862.432 584.824 862.924 584.977 863.523 584.977ZM873.07 586.182C872.282 586.182 871.59 585.994 870.996 585.619C870.405 585.244 869.943 584.72 869.609 584.045C869.28 583.371 869.115 582.583 869.115 581.682C869.115 580.773 869.28 579.979 869.609 579.301C869.943 578.623 870.405 578.097 870.996 577.722C871.59 577.347 872.282 577.159 873.07 577.159C873.857 577.159 874.547 577.347 875.138 577.722C875.732 578.097 876.195 578.623 876.524 579.301C876.857 579.979 877.024 580.773 877.024 581.682C877.024 582.583 876.857 583.371 876.524 584.045C876.195 584.72 875.732 585.244 875.138 585.619C874.547 585.994 873.857 586.182 873.07 586.182ZM873.07 584.977C873.668 584.977 874.161 584.824 874.547 584.517C874.933 584.21 875.219 583.807 875.405 583.307C875.59 582.807 875.683 582.265 875.683 581.682C875.683 581.098 875.59 580.555 875.405 580.051C875.219 579.547 874.933 579.14 874.547 578.83C874.161 578.519 873.668 578.364 873.07 578.364C872.471 578.364 871.979 578.519 871.592 578.83C871.206 579.14 870.92 579.547 870.734 580.051C870.549 580.555 870.456 581.098 870.456 581.682C870.456 582.265 870.549 582.807 870.734 583.307C870.92 583.807 871.206 584.21 871.592 584.517C871.979 584.824 872.471 584.977 873.07 584.977ZM882.866 577.273V578.409H878.344V577.273H882.866ZM879.662 575.182H881.003V583.5C881.003 583.879 881.058 584.163 881.168 584.352C881.281 584.538 881.425 584.663 881.599 584.727C881.777 584.788 881.965 584.818 882.162 584.818C882.31 584.818 882.431 584.811 882.526 584.795C882.62 584.777 882.696 584.761 882.753 584.75L883.026 585.955C882.935 585.989 882.808 586.023 882.645 586.057C882.482 586.095 882.276 586.114 882.026 586.114C881.647 586.114 881.276 586.032 880.912 585.869C880.552 585.706 880.253 585.458 880.014 585.125C879.779 584.792 879.662 584.371 879.662 583.864V575.182ZM885.253 586V574.364H886.594V578.659H886.707C886.806 578.508 886.942 578.314 887.116 578.08C887.295 577.841 887.548 577.629 887.878 577.443C888.211 577.254 888.662 577.159 889.23 577.159C889.965 577.159 890.613 577.343 891.173 577.71C891.734 578.078 892.171 578.598 892.486 579.273C892.8 579.947 892.957 580.742 892.957 581.659C892.957 582.583 892.8 583.384 892.486 584.062C892.171 584.737 891.736 585.259 891.179 585.631C890.622 585.998 889.98 586.182 889.253 586.182C888.692 586.182 888.243 586.089 887.906 585.903C887.569 585.714 887.31 585.5 887.128 585.261C886.946 585.019 886.806 584.818 886.707 584.659H886.548V586H885.253ZM886.571 581.636C886.571 582.295 886.668 582.877 886.861 583.381C887.054 583.881 887.336 584.273 887.707 584.557C888.079 584.837 888.533 584.977 889.071 584.977C889.632 584.977 890.099 584.83 890.474 584.534C890.853 584.235 891.137 583.833 891.327 583.33C891.52 582.822 891.616 582.258 891.616 581.636C891.616 581.023 891.522 580.47 891.332 579.977C891.147 579.481 890.865 579.089 890.486 578.801C890.111 578.509 889.639 578.364 889.071 578.364C888.526 578.364 888.067 578.502 887.696 578.778C887.325 579.051 887.045 579.434 886.855 579.926C886.666 580.415 886.571 580.985 886.571 581.636ZM897.577 586.205C897.024 586.205 896.522 586.1 896.071 585.892C895.62 585.68 895.262 585.375 894.997 584.977C894.732 584.576 894.599 584.091 894.599 583.523C894.599 583.023 894.698 582.617 894.895 582.307C895.092 581.992 895.355 581.746 895.685 581.568C896.014 581.39 896.378 581.258 896.776 581.17C897.177 581.08 897.58 581.008 897.986 580.955C898.516 580.886 898.946 580.835 899.276 580.801C899.609 580.763 899.851 580.701 900.003 580.614C900.158 580.527 900.236 580.375 900.236 580.159V580.114C900.236 579.553 900.082 579.117 899.776 578.807C899.473 578.496 899.012 578.341 898.395 578.341C897.755 578.341 897.253 578.481 896.889 578.761C896.526 579.042 896.27 579.341 896.122 579.659L894.849 579.205C895.077 578.674 895.38 578.261 895.759 577.966C896.141 577.667 896.558 577.458 897.009 577.341C897.463 577.22 897.91 577.159 898.349 577.159C898.63 577.159 898.952 577.193 899.315 577.261C899.683 577.326 900.037 577.46 900.378 577.665C900.723 577.869 901.009 578.178 901.236 578.591C901.463 579.004 901.577 579.557 901.577 580.25V586H900.236V584.818H900.168C900.077 585.008 899.925 585.21 899.713 585.426C899.501 585.642 899.219 585.826 898.866 585.977C898.514 586.129 898.084 586.205 897.577 586.205ZM897.781 585C898.312 585 898.759 584.896 899.122 584.688C899.49 584.479 899.766 584.21 899.952 583.881C900.141 583.551 900.236 583.205 900.236 582.841V581.614C900.179 581.682 900.054 581.744 899.861 581.801C899.671 581.854 899.452 581.902 899.202 581.943C898.955 581.981 898.715 582.015 898.48 582.045C898.249 582.072 898.062 582.095 897.918 582.114C897.569 582.159 897.243 582.233 896.94 582.335C896.641 582.434 896.399 582.583 896.213 582.784C896.031 582.981 895.94 583.25 895.94 583.591C895.94 584.057 896.113 584.409 896.457 584.648C896.806 584.883 897.247 585 897.781 585ZM905.365 574.364V586H904.024V574.364H905.365ZM909.162 574.364V586H907.821V574.364H909.162Z" fill="#343A40"/>
<rect x="938.5" y="572.5" width="15" height="15" rx="7.5" fill="white" stroke="#ABB5BE"/>
<path d="M963.409 586V574.364H967.477C968.288 574.364 968.956 574.504 969.483 574.784C970.009 575.061 970.402 575.434 970.659 575.903C970.917 576.369 971.045 576.886 971.045 577.455C971.045 577.955 970.956 578.367 970.778 578.693C970.604 579.019 970.373 579.277 970.085 579.466C969.801 579.655 969.492 579.795 969.159 579.886V580C969.515 580.023 969.873 580.148 970.233 580.375C970.593 580.602 970.894 580.928 971.136 581.352C971.379 581.777 971.5 582.295 971.5 582.909C971.5 583.492 971.367 584.017 971.102 584.483C970.837 584.949 970.419 585.318 969.847 585.591C969.275 585.864 968.53 586 967.614 586H963.409ZM964.818 584.75H967.614C968.534 584.75 969.188 584.572 969.574 584.216C969.964 583.856 970.159 583.42 970.159 582.909C970.159 582.515 970.059 582.152 969.858 581.818C969.657 581.481 969.371 581.212 969 581.011C968.629 580.807 968.189 580.705 967.682 580.705H964.818V584.75ZM964.818 579.477H967.432C967.856 579.477 968.239 579.394 968.58 579.227C968.924 579.061 969.197 578.826 969.398 578.523C969.602 578.22 969.705 577.864 969.705 577.455C969.705 576.943 969.527 576.509 969.17 576.153C968.814 575.794 968.25 575.614 967.477 575.614H964.818V579.477ZM976.202 586.205C975.649 586.205 975.147 586.1 974.696 585.892C974.245 585.68 973.887 585.375 973.622 584.977C973.357 584.576 973.224 584.091 973.224 583.523C973.224 583.023 973.323 582.617 973.52 582.307C973.717 581.992 973.98 581.746 974.31 581.568C974.639 581.39 975.003 581.258 975.401 581.17C975.802 581.08 976.205 581.008 976.611 580.955C977.141 580.886 977.571 580.835 977.901 580.801C978.234 580.763 978.476 580.701 978.628 580.614C978.783 580.527 978.861 580.375 978.861 580.159V580.114C978.861 579.553 978.707 579.117 978.401 578.807C978.098 578.496 977.637 578.341 977.02 578.341C976.38 578.341 975.878 578.481 975.514 578.761C975.151 579.042 974.895 579.341 974.747 579.659L973.474 579.205C973.702 578.674 974.005 578.261 974.384 577.966C974.766 577.667 975.183 577.458 975.634 577.341C976.088 577.22 976.535 577.159 976.974 577.159C977.255 577.159 977.577 577.193 977.94 577.261C978.308 577.326 978.662 577.46 979.003 577.665C979.348 577.869 979.634 578.178 979.861 578.591C980.088 579.004 980.202 579.557 980.202 580.25V586H978.861V584.818H978.793C978.702 585.008 978.55 585.21 978.338 585.426C978.126 585.642 977.844 585.826 977.491 585.977C977.139 586.129 976.709 586.205 976.202 586.205ZM976.406 585C976.937 585 977.384 584.896 977.747 584.688C978.115 584.479 978.391 584.21 978.577 583.881C978.766 583.551 978.861 583.205 978.861 582.841V581.614C978.804 581.682 978.679 581.744 978.486 581.801C978.296 581.854 978.077 581.902 977.827 581.943C977.58 581.981 977.34 582.015 977.105 582.045C976.874 582.072 976.687 582.095 976.543 582.114C976.194 582.159 975.868 582.233 975.565 582.335C975.266 582.434 975.024 582.583 974.838 582.784C974.656 582.981 974.565 583.25 974.565 583.591C974.565 584.057 974.738 584.409 975.082 584.648C975.431 584.883 975.872 585 976.406 585ZM988.831 579.227L987.626 579.568C987.551 579.367 987.439 579.172 987.291 578.983C987.147 578.79 986.95 578.631 986.7 578.506C986.45 578.381 986.13 578.318 985.74 578.318C985.206 578.318 984.761 578.441 984.405 578.688C984.053 578.93 983.876 579.239 983.876 579.614C983.876 579.947 983.998 580.21 984.24 580.403C984.482 580.597 984.861 580.758 985.376 580.886L986.672 581.205C987.452 581.394 988.034 581.684 988.416 582.074C988.799 582.46 988.99 582.958 988.99 583.568C988.99 584.068 988.846 584.515 988.558 584.909C988.274 585.303 987.876 585.614 987.365 585.841C986.854 586.068 986.259 586.182 985.581 586.182C984.691 586.182 983.954 585.989 983.371 585.602C982.787 585.216 982.418 584.652 982.263 583.909L983.536 583.591C983.657 584.061 983.886 584.413 984.223 584.648C984.564 584.883 985.009 585 985.558 585C986.183 585 986.679 584.867 987.047 584.602C987.418 584.333 987.604 584.011 987.604 583.636C987.604 583.333 987.498 583.08 987.286 582.875C987.073 582.667 986.748 582.511 986.308 582.409L984.854 582.068C984.054 581.879 983.467 581.585 983.092 581.188C982.721 580.786 982.536 580.284 982.536 579.682C982.536 579.189 982.674 578.754 982.95 578.375C983.231 577.996 983.611 577.699 984.092 577.483C984.577 577.267 985.126 577.159 985.74 577.159C986.604 577.159 987.282 577.348 987.774 577.727C988.27 578.106 988.623 578.606 988.831 579.227ZM992.259 582.818L992.236 581.159H992.509L996.327 577.273H997.986L993.918 581.386H993.804L992.259 582.818ZM991.009 586V574.364H992.349V586H991.009ZM996.554 586L993.145 581.682L994.099 580.75L998.259 586H996.554ZM1003.01 586.182C1002.17 586.182 1001.45 585.996 1000.84 585.625C1000.23 585.25 999.761 584.727 999.432 584.057C999.106 583.383 998.943 582.598 998.943 581.705C998.943 580.811 999.106 580.023 999.432 579.341C999.761 578.655 1000.22 578.121 1000.81 577.739C1001.4 577.352 1002.09 577.159 1002.88 577.159C1003.33 577.159 1003.78 577.235 1004.22 577.386C1004.66 577.538 1005.07 577.784 1005.43 578.125C1005.8 578.462 1006.09 578.909 1006.3 579.466C1006.52 580.023 1006.62 580.708 1006.62 581.523V582.091H999.898V580.932H1005.26C1005.26 580.439 1005.16 580 1004.97 579.614C1004.77 579.227 1004.5 578.922 1004.14 578.699C1003.78 578.475 1003.36 578.364 1002.88 578.364C1002.34 578.364 1001.88 578.496 1001.49 578.761C1001.1 579.023 1000.8 579.364 1000.6 579.784C1000.39 580.205 1000.28 580.655 1000.28 581.136V581.909C1000.28 582.568 1000.4 583.127 1000.62 583.585C1000.86 584.04 1001.18 584.386 1001.59 584.625C1001.99 584.86 1002.47 584.977 1003.01 584.977C1003.36 584.977 1003.68 584.928 1003.97 584.83C1004.25 584.727 1004.5 584.576 1004.71 584.375C1004.92 584.17 1005.08 583.917 1005.19 583.614L1006.49 583.977C1006.35 584.417 1006.12 584.803 1005.8 585.136C1005.48 585.466 1005.08 585.723 1004.61 585.909C1004.13 586.091 1003.6 586.182 1003.01 586.182ZM1012.46 577.273V578.409H1007.94V577.273H1012.46ZM1009.26 575.182H1010.6V583.5C1010.6 583.879 1010.65 584.163 1010.76 584.352C1010.88 584.538 1011.02 584.663 1011.19 584.727C1011.37 584.788 1011.56 584.818 1011.76 584.818C1011.9 584.818 1012.02 584.811 1012.12 584.795C1012.21 584.777 1012.29 584.761 1012.35 584.75L1012.62 585.955C1012.53 585.989 1012.4 586.023 1012.24 586.057C1012.08 586.095 1011.87 586.114 1011.62 586.114C1011.24 586.114 1010.87 586.032 1010.51 585.869C1010.15 585.706 1009.85 585.458 1009.61 585.125C1009.37 584.792 1009.26 584.371 1009.26 583.864V575.182ZM1014.85 586V574.364H1016.19V578.659H1016.3C1016.4 578.508 1016.54 578.314 1016.71 578.08C1016.89 577.841 1017.14 577.629 1017.47 577.443C1017.8 577.254 1018.26 577.159 1018.82 577.159C1019.56 577.159 1020.21 577.343 1020.77 577.71C1021.33 578.078 1021.77 578.598 1022.08 579.273C1022.39 579.947 1022.55 580.742 1022.55 581.659C1022.55 582.583 1022.39 583.384 1022.08 584.062C1021.77 584.737 1021.33 585.259 1020.77 585.631C1020.22 585.998 1019.57 586.182 1018.85 586.182C1018.29 586.182 1017.84 586.089 1017.5 585.903C1017.16 585.714 1016.9 585.5 1016.72 585.261C1016.54 585.019 1016.4 584.818 1016.3 584.659H1016.14V586H1014.85ZM1016.16 581.636C1016.16 582.295 1016.26 582.877 1016.45 583.381C1016.65 583.881 1016.93 584.273 1017.3 584.557C1017.67 584.837 1018.13 584.977 1018.66 584.977C1019.23 584.977 1019.69 584.83 1020.07 584.534C1020.45 584.235 1020.73 583.833 1020.92 583.33C1021.11 582.822 1021.21 582.258 1021.21 581.636C1021.21 581.023 1021.12 580.47 1020.93 579.977C1020.74 579.481 1020.46 579.089 1020.08 578.801C1019.7 578.509 1019.23 578.364 1018.66 578.364C1018.12 578.364 1017.66 578.502 1017.29 578.778C1016.92 579.051 1016.64 579.434 1016.45 579.926C1016.26 580.415 1016.16 580.985 1016.16 581.636ZM1027.17 586.205C1026.62 586.205 1026.12 586.1 1025.66 585.892C1025.21 585.68 1024.86 585.375 1024.59 584.977C1024.33 584.576 1024.19 584.091 1024.19 583.523C1024.19 583.023 1024.29 582.617 1024.49 582.307C1024.69 581.992 1024.95 581.746 1025.28 581.568C1025.61 581.39 1025.97 581.258 1026.37 581.17C1026.77 581.08 1027.17 581.008 1027.58 580.955C1028.11 580.886 1028.54 580.835 1028.87 580.801C1029.2 580.763 1029.45 580.701 1029.6 580.614C1029.75 580.527 1029.83 580.375 1029.83 580.159V580.114C1029.83 579.553 1029.68 579.117 1029.37 578.807C1029.07 578.496 1028.61 578.341 1027.99 578.341C1027.35 578.341 1026.85 578.481 1026.48 578.761C1026.12 579.042 1025.86 579.341 1025.72 579.659L1024.44 579.205C1024.67 578.674 1024.97 578.261 1025.35 577.966C1025.73 577.667 1026.15 577.458 1026.6 577.341C1027.06 577.22 1027.5 577.159 1027.94 577.159C1028.22 577.159 1028.55 577.193 1028.91 577.261C1029.28 577.326 1029.63 577.46 1029.97 577.665C1030.32 577.869 1030.6 578.178 1030.83 578.591C1031.06 579.004 1031.17 579.557 1031.17 580.25V586H1029.83V584.818H1029.76C1029.67 585.008 1029.52 585.21 1029.31 585.426C1029.09 585.642 1028.81 585.826 1028.46 585.977C1028.11 586.129 1027.68 586.205 1027.17 586.205ZM1027.38 585C1027.91 585 1028.35 584.896 1028.72 584.688C1029.08 584.479 1029.36 584.21 1029.55 583.881C1029.73 583.551 1029.83 583.205 1029.83 582.841V581.614C1029.77 581.682 1029.65 581.744 1029.45 581.801C1029.27 581.854 1029.05 581.902 1028.8 581.943C1028.55 581.981 1028.31 582.015 1028.07 582.045C1027.84 582.072 1027.66 582.095 1027.51 582.114C1027.16 582.159 1026.84 582.233 1026.53 582.335C1026.23 582.434 1025.99 582.583 1025.81 582.784C1025.63 582.981 1025.53 583.25 1025.53 583.591C1025.53 584.057 1025.71 584.409 1026.05 584.648C1026.4 584.883 1026.84 585 1027.38 585ZM1034.96 574.364V586H1033.62V574.364H1034.96ZM1038.76 574.364V586H1037.41V574.364H1038.76Z" fill="#343A40"/>
</g>
<defs>
<clipPath id="clip0_2_25">
<rect width="1440" height="1024" fill="white"/>
</clipPath>
</defs>
</svg>
